<svg xmlns="http://www.w3.org/2000/svg" version="1.1" xmlns:xlink="http://www.w3.org/1999/xlink" xmlns:svgjs="http://svgjs.dev/svgjs" width="1000" height="1000" viewBox="0 0 1000 1000"><g transform="matrix(1,0,0,1,0,0)"><svg viewBox="0 0 280 280" data-background-color="#636365" preserveAspectRatio="xMidYMid meet" height="1000" width="1000" xmlns="http://www.w3.org/2000/svg" xmlns:xlink="http://www.w3.org/1999/xlink"><defs></defs><g id="tight-bounds" transform="matrix(1,0,0,1,0,0)"><svg viewBox="0 0 280 280" height="280" width="280"><g><svg viewBox="0 0 280 280" height="280" width="280"><g><svg viewBox="0 0 280 280" height="280" width="280"><g><svg viewBox="0 0 280 280" height="280" width="280"><g><svg viewBox="0 0 280 280" height="280" width="280"><g transform="matrix(1,0,0,1,74.26984428798572,105.50300870674087)"><svg viewBox="0 0 131.46031142402856 68.99398258651827" height="68.99398258651827" width="131.46031142402856"><g><svg xmlns="http://www.w3.org/2000/svg" xmlns:xlink="http://www.w3.org/1999/xlink" version="1.1" x="0" y="0" viewBox="5 26.381999969482422 90.0009994506836 47.2349967956543" enable-background="new 0 0 100 100" xml:space="preserve" height="68.99398258651827" width="131.46031142402856" class="icon-o-0" data-fill-palette-color="accent" id="o-0"><path fill="none" d="M50.482 28.475c-0.03 0.03-0.071 0.048-0.106 0.072C50.411 28.522 50.452 28.505 50.482 28.475z"></path><path fill="none" d="M50.628 28.259c-0.021 0.052-0.06 0.093-0.093 0.138C50.568 28.352 50.606 28.311 50.628 28.259z"></path><path fill="none" d="M50.553 27.618c0.025 0.037 0.058 0.069 0.075 0.111C50.61 27.688 50.578 27.655 50.553 27.618z"></path><path fill="none" d="M50.266 28.621c-0.082 0.034-0.171 0.053-0.265 0.053C50.095 28.674 50.184 28.655 50.266 28.621z"></path><path fill="none" d="M50.001 28.674c-0.375 0-0.68-0.304-0.68-0.68s0.305-0.68 0.68-0.68c-0.376 0-0.681 0.304-0.681 0.68S49.625 28.674 50.001 28.674z"></path><path fill="none" d="M50.001 27.314c0.094 0 0.183 0.019 0.265 0.053C50.184 27.333 50.095 27.314 50.001 27.314z"></path><path fill="none" d="M50.376 27.442c0.036 0.024 0.076 0.041 0.106 0.071C50.452 27.483 50.412 27.466 50.376 27.442z"></path><path fill="none" d="M54.305 70.684c0.375 0 0.678 0.305 0.68 0.68C54.984 70.988 54.68 70.684 54.305 70.684z"></path><path d="M86.63 69.109c0.108-0.227 0.177-0.478 0.177-0.746V28.107c0-0.953-0.772-1.725-1.727-1.725H14.92c-0.953 0-1.724 0.772-1.724 1.725v40.256c0 0.269 0.066 0.52 0.176 0.746H5v2.783c0 0.953 0.773 1.725 1.726 1.725h86.549c0.953 0 1.726-0.771 1.726-1.725v-2.783H86.63zM50.001 27.314c0.094 0 0.183 0.019 0.265 0.053 0.042 0.018 0.074 0.049 0.11 0.075 0.036 0.024 0.076 0.041 0.106 0.071 0.03 0.03 0.047 0.07 0.071 0.105 0.025 0.037 0.058 0.069 0.075 0.111 0.034 0.081 0.054 0.171 0.054 0.265s-0.02 0.183-0.054 0.265c-0.021 0.052-0.06 0.093-0.093 0.138-0.02 0.025-0.031 0.056-0.053 0.078-0.03 0.03-0.071 0.048-0.106 0.072-0.037 0.025-0.069 0.057-0.11 0.074-0.082 0.034-0.171 0.053-0.265 0.053-0.376 0-0.681-0.304-0.681-0.68S49.625 27.314 50.001 27.314zM16.143 29.708h67.714v36.571H16.143V29.708zM54.305 72.046h-8.608c-0.375 0-0.68-0.305-0.68-0.683 0-0.375 0.305-0.68 0.68-0.68h8.608c0.375 0 0.68 0.305 0.68 0.68C54.984 71.741 54.68 72.046 54.305 72.046z" fill="#ffffff" data-fill-palette-color="accent"></path><polygon points="25.039,48.313 25.039,49.536 25.039,49.537 44.878,49.537 44.878,49.536 44.878,48.313 44.878,48.312   25.039,48.312 " fill="#ffffff" data-fill-palette-color="accent"></polygon><rect x="36.633" y="58.613" width="3.488" height="1.225" fill="#ffffff" data-fill-palette-color="accent"></rect><rect x="46.552" y="48.313" width="3.488" height="1.224" fill="#ffffff" data-fill-palette-color="accent"></rect><rect x="39.377" y="46.296" width="3.488" height="1.224" fill="#ffffff" data-fill-palette-color="accent"></rect><rect x="20.692" y="31.829" width="3.489" height="1.224" fill="#ffffff" data-fill-palette-color="accent"></rect><rect x="20.692" y="42.131" width="3.489" height="1.224" fill="#ffffff" data-fill-palette-color="accent"></rect><rect x="20.692" y="46.296" width="3.489" height="1.224" fill="#ffffff" data-fill-palette-color="accent"></rect><rect x="20.692" y="48.313" width="3.489" height="1.224" fill="#ffffff" data-fill-palette-color="accent"></rect><rect x="20.692" y="44.191" width="5.832" height="1.224" fill="#ffffff" data-fill-palette-color="accent"></rect><rect x="25.039" y="46.296" width="12.665" height="1.224" fill="#ffffff" data-fill-palette-color="accent"></rect><rect x="20.692" y="50.373" width="3.489" height="1.223" fill="#ffffff" data-fill-palette-color="accent"></rect><rect x="20.692" y="54.494" width="3.489" height="1.223" fill="#ffffff" data-fill-palette-color="accent"></rect><rect x="53.637" y="50.373" width="3.488" height="1.223" fill="#ffffff" data-fill-palette-color="accent"></rect><rect x="25.039" y="50.373" width="27.761" height="1.223" fill="#ffffff" data-fill-palette-color="accent"></rect><rect x="20.692" y="52.434" width="27.792" height="1.223" fill="#ffffff" data-fill-palette-color="accent"></rect><rect x="25.039" y="54.494" width="23.444" height="1.223" fill="#ffffff" data-fill-palette-color="accent"></rect><rect x="20.692" y="56.555" width="17.012" height="1.223" fill="#ffffff" data-fill-palette-color="accent"></rect><rect x="20.692" y="58.613" width="14.267" height="1.225" fill="#ffffff" data-fill-palette-color="accent"></rect><rect x="20.692" y="60.674" width="7.134" height="1.225" fill="#ffffff" data-fill-palette-color="accent"></rect><rect x="20.692" y="62.736" width="5.832" height="1.223" fill="#ffffff" data-fill-palette-color="accent"></rect><rect x="20.692" y="33.89" width="8.694" height="1.224" fill="#ffffff" data-fill-palette-color="accent"></rect><rect x="20.692" y="35.95" width="11.594" height="1.224" fill="#ffffff" data-fill-palette-color="accent"></rect><rect x="20.692" y="38.01" width="8.694" height="1.224" fill="#ffffff" data-fill-palette-color="accent"></rect><rect x="20.692" y="40.071" width="8.694" height="1.224" fill="#ffffff" data-fill-palette-color="accent"></rect><rect x="18.798" y="31.829" width="1.058" height="1.224" fill="#ffffff" data-fill-palette-color="accent"></rect><rect x="18.798" y="33.89" width="1.058" height="1.224" fill="#ffffff" data-fill-palette-color="accent"></rect><rect x="18.798" y="35.95" width="1.058" height="1.224" fill="#ffffff" data-fill-palette-color="accent"></rect><rect x="18.798" y="38.01" width="1.058" height="1.224" fill="#ffffff" data-fill-palette-color="accent"></rect><rect x="18.798" y="40.071" width="1.058" height="1.224" fill="#ffffff" data-fill-palette-color="accent"></rect><rect x="18.798" y="42.131" width="1.058" height="1.224" fill="#ffffff" data-fill-palette-color="accent"></rect><rect x="18.798" y="44.191" width="1.058" height="1.224" fill="#ffffff" data-fill-palette-color="accent"></rect><rect x="18.798" y="46.252" width="1.058" height="1.224" fill="#ffffff" data-fill-palette-color="accent"></rect><rect x="18.798" y="48.313" width="1.058" height="1.224" fill="#ffffff" data-fill-palette-color="accent"></rect><rect x="18.798" y="50.373" width="1.058" height="1.223" fill="#ffffff" data-fill-palette-color="accent"></rect><rect x="18.798" y="52.434" width="1.058" height="1.223" fill="#ffffff" data-fill-palette-color="accent"></rect><rect x="18.798" y="54.494" width="1.058" height="1.223" fill="#ffffff" data-fill-palette-color="accent"></rect><rect x="18.798" y="56.555" width="1.058" height="1.223" fill="#ffffff" data-fill-palette-color="accent"></rect><rect x="18.798" y="58.613" width="1.058" height="1.225" fill="#ffffff" data-fill-palette-color="accent"></rect><rect x="18.798" y="60.674" width="1.058" height="1.225" fill="#ffffff" data-fill-palette-color="accent"></rect><rect x="18.798" y="62.736" width="1.058" height="1.223" fill="#ffffff" data-fill-palette-color="accent"></rect></svg></g></svg></g><path d="M25.781 107.934l-0.412 0.173c-0.036-0.35-0.097-0.63-0.182-0.84-0.087-0.203-0.223-0.364-0.407-0.483v0c-1.645-1.019-4.326-2.583-8.041-4.692-3.72-2.118-5.926-3.33-6.618-3.638v0c-0.065-0.041-0.153-0.078-0.264-0.111v0c-0.279-0.084-0.495-0.047-0.649 0.112-0.158 0.15-0.307 0.456-0.446 0.916v0c-0.293 0.973-0.472 1.803-0.538 2.491v0c-0.383-0.115-0.707-0.273-0.971-0.473-0.259-0.198-0.352-0.417-0.28-0.657v0c0.629-2.159 1.03-3.598 1.205-4.317 0.182-0.723 0.373-1.614 0.571-2.671v0c0.062-0.088 0.228-0.101 0.5-0.041 0.27 0.067 0.487 0.133 0.652 0.196v0c-0.112 0.631-0.147 1.063-0.104 1.296 0.041 0.239 0.197 0.438 0.468 0.597v0c0.526 0.321 3.793 2.097 9.801 5.328v0c3.403 1.831 5.252 2.83 5.549 2.997v0c0.44 0.253 0.659 0.69 0.656 1.312-0.01 0.62-0.173 1.455-0.49 2.505zM29.203 81.363c0.068-0.155 0.18-0.25 0.336-0.286 0.152-0.044 0.319-0.027 0.499 0.052v0c0.472 0.207 1.04 0.807 1.706 1.802 0.666 0.994 1.14 2.141 1.422 3.44 0.281 1.299 0.16 2.547-0.365 3.744v0c-0.402 0.918-0.937 1.531-1.603 1.838-0.67 0.298-1.375 0.285-2.113-0.038v0c-0.441-0.193-0.95-0.516-1.528-0.969-0.578-0.453-1.295-1.044-2.151-1.774v0c-0.79-0.679-1.505-1.266-2.146-1.761v0c-0.12-0.03-0.207 0.017-0.261 0.141v0c-0.109 0.248 0.003 0.863 0.335 1.844 0.323 0.984 0.728 1.994 1.214 3.027 0.495 1.03 0.903 1.712 1.223 2.044v0c1.282 0.939 2.144 1.545 2.585 1.821 0.433 0.278 0.671 0.434 0.716 0.468v0c0.048 0.043 0.108 0.092 0.18 0.146 0.066 0.051 0.103 0.093 0.111 0.126 0.008 0.033-0.001 0.077-0.025 0.133v0c-0.114 0.261-0.313 0.665-0.598 1.214-0.278 0.551-0.455 0.81-0.529 0.777v0c-0.587-0.383-1.785-1.233-3.597-2.551v0c-0.458-0.304-0.678-0.452-0.659-0.444v0l-5.286-3.735c-0.116-0.073-0.173-0.146-0.17-0.219 0-0.067 0.043-0.199 0.13-0.398v0c0.361-0.825 0.754-1.367 1.178-1.625v0c0.06 0.049 0.454 0.339 1.181 0.873 0.724 0.524 1.627 1.223 2.709 2.096v0c-0.765-1.511-1.405-2.996-1.919-4.457-0.511-1.466-0.687-2.382-0.526-2.748v0c0.087-0.199 0.356-0.55 0.806-1.056 0.457-0.502 0.751-0.743 0.882-0.722v0l1.588 1.261c1.44 1.17 2.593 2.082 3.461 2.736 0.867 0.653 1.558 1.093 2.073 1.318v0c0.807 0.353 1.376 0.151 1.707-0.605v0c0.269-0.614 0.322-1.393 0.159-2.338-0.163-0.944-0.495-1.884-0.994-2.82-0.503-0.945-1.08-1.73-1.731-2.355zM35.15 73.842c0.186-0.028 0.356 0 0.51 0.085v0c0.118 0.066 0.275 0.195 0.469 0.389v0c0.407 0.536 0.693 1.354 0.858 2.452 0.155 1.101 0.157 2.241 0.006 3.421-0.151 1.179-0.428 2.13-0.829 2.852v0c-0.447 0.805-1.039 1.298-1.774 1.478-0.732 0.174-1.51 0.033-2.333-0.424v0c-0.906-0.503-2.912-2.059-6.019-4.669v0l-1.279 2.555c-0.01 0.018-0.074 0.029-0.193 0.033-0.109 0.001-0.192-0.002-0.25-0.011v0c-0.391-0.566-0.657-1-0.798-1.304v0l1.273-2.291-5.144-4.38c-0.015-1.411 0.138-2.62 0.457-3.628v0c0.039-0.071 0.131-0.125 0.276-0.161 0.141-0.045 0.248-0.048 0.318-0.009v0c-0.055 0.853 0.237 1.554 0.878 2.103v0c0.911 0.816 2.407 2.097 4.49 3.843v0l2.656-4.719c0.055 0.054 0.154 0.113 0.297 0.176 0.139 0.07 0.242 0.123 0.307 0.159v0c0.148 0.082 0.235 0.185 0.26 0.307 0.019 0.119-0.019 0.264-0.115 0.436v0l-2.272 4.572c2.99 2.498 4.929 3.994 5.817 4.487v0c0.456 0.253 0.883 0.335 1.281 0.247 0.398-0.089 0.737-0.385 1.017-0.888v0c0.418-0.752 0.604-1.757 0.558-3.014-0.051-1.26-0.292-2.626-0.722-4.097zM37.842 60.804c0.166-0.076 0.313-0.071 0.443 0.016v0c0.348 0.235 0.603 0.614 0.764 1.139 0.155 0.521 0.173 1.113 0.053 1.776-0.12 0.663-0.384 1.297-0.792 1.904v0c-0.568 0.843-1.24 1.374-2.017 1.593-0.773 0.214-1.505 0.113-2.197-0.303v0c-0.406 0.748-0.535 1.559-0.389 2.433 0.152 0.878 0.505 1.7 1.059 2.465v0l0.042 0.028v0c0.118 0.177 0.21 0.301 0.277 0.371v0c0.417 0.485 1.843 1.895 4.28 4.23v0c0.146 0.123-0.006 0.518-0.456 1.187v0c-0.431 0.64-0.759 0.885-0.984 0.734v0c-0.124-0.083-0.417-0.35-0.881-0.802v0c-1.419-1.373-2.883-2.812-4.392-4.318-1.509-1.506-2.372-2.39-2.589-2.65v0c-0.2-0.225-0.282-0.448-0.247-0.669 0.035-0.222 0.149-0.476 0.341-0.762v0c0.363-0.539 0.752-0.947 1.167-1.223v0c0.282 0.37 0.819 0.985 1.612 1.845v0c-0.341-0.875-0.512-1.725-0.512-2.55 0-0.825 0.199-1.532 0.596-2.122v0c0.182-0.27 0.373-0.475 0.575-0.617 0.202-0.142 0.367-0.206 0.497-0.192v0c1.624 1.094 2.836 1.045 3.638-0.146v0c0.647-0.961 0.684-2.083 0.112-3.367zM47.244 49.624c0.229-0.127 0.463-0.091 0.702 0.107v0c0.412 0.342 0.641 0.866 0.688 1.574 0.047 0.717-0.078 1.494-0.375 2.33-0.297 0.845-0.726 1.607-1.289 2.284v0c-0.441 0.532-0.979 1.01-1.612 1.434v0c0.091 0.102 0.186 0.221 0.285 0.356 0.103 0.13 0.233 0.286 0.39 0.469v0c0.2 0.236 0.564 0.684 1.092 1.341 0.532 0.653 0.92 1.103 1.164 1.35v0c0.151 0.328 0.233 0.823 0.246 1.485 0.013 0.663-0.077 1.349-0.27 2.059-0.188 0.715-0.492 1.325-0.912 1.831v0c-0.402 0.485-0.933 0.88-1.592 1.187-0.65 0.306-1.316 0.457-2 0.453-0.683-0.004-1.262-0.203-1.737-0.596v0c-0.624-0.87-1.151-1.572-1.581-2.104-0.435-0.537-1.071-1.276-1.909-2.218v0c-0.307-0.351-0.488-0.907-0.544-1.666-0.056-0.76 0.038-1.557 0.282-2.393 0.24-0.83 0.607-1.543 1.1-2.137v0l0.241-0.29c-0.236-0.267-0.348-0.535-0.335-0.805 0.009-0.265 0.148-0.56 0.416-0.883v0c0.407-0.49 0.76-0.72 1.061-0.691v0c0.499 0.661 0.882 1.101 1.148 1.322v0c0.667 0.554 1.393 0.751 2.176 0.592 0.784-0.159 1.532-0.669 2.246-1.53v0c0.601-0.725 1.004-1.512 1.209-2.363 0.209-0.856 0.112-1.689-0.29-2.498zM46.337 65.018c0.242-0.292 0.386-0.683 0.432-1.172 0.046-0.49-0.023-0.895-0.206-1.215v0c-0.672-0.813-1.235-1.518-1.691-2.116v0c-0.17-0.22-0.445-0.567-0.825-1.041-0.377-0.48-0.723-0.9-1.041-1.26v0c-0.677 0.063-1.313-0.078-1.908-0.421v0c-0.057-0.048-0.118-0.08-0.182-0.099-0.059-0.014-0.116-0.004-0.17 0.03v0c-0.105 0.063-0.224 0.175-0.359 0.337v0c-0.42 0.506-0.618 1.041-0.594 1.606 0.018 0.561 0.22 1.076 0.606 1.546v0c1.189 1.515 2.251 2.872 3.185 4.069v0c0.472 0.365 0.977 0.498 1.516 0.4 0.539-0.098 0.952-0.319 1.237-0.664zM48.752 21.955c0.801-0.719 1.641-1.118 2.518-1.195 0.872-0.073 1.665 0.203 2.38 0.826v0l0.177 0.197c-1.204 0.352-2.378 1.042-3.522 2.069v0c-1.114 1-1.926 2.002-2.436 3.005-0.514 0.999-0.676 2.259-0.484 3.78 0.191 1.521 0.873 3.421 2.045 5.701v0c1.258 2.466 2.765 5.195 4.522 8.187 1.752 2.996 2.981 4.888 3.687 5.674v0c0.475 0.529 0.904 0.84 1.288 0.933 0.384 0.093 0.732-0.001 1.044-0.282v0c0.645-0.579 1.062-1.54 1.249-2.883 0.188-1.342 0.114-2.778-0.221-4.307v0c0.236-0.112 0.458-0.052 0.667 0.18v0c0.421 0.469 0.699 1.261 0.835 2.376 0.136 1.125 0.032 2.292-0.311 3.502-0.343 1.209-0.959 2.212-1.846 3.008v0c-0.544 0.489-1.159 0.726-1.844 0.714-0.69-0.018-1.374-0.278-2.052-0.78v0c0.084 0.935 0.017 1.86-0.2 2.773-0.218 0.924-0.591 1.623-1.12 2.098v0c-0.403 0.362-0.89 0.576-1.459 0.641-0.57 0.075-1.121 0.023-1.654-0.154-0.532-0.177-0.955-0.44-1.267-0.788v0c-0.207-0.433-0.469-0.913-0.786-1.438-0.317-0.526-0.639-1.042-0.966-1.549v0c-0.154-0.253-0.337-0.548-0.55-0.886-0.212-0.338-0.441-0.719-0.686-1.145v0c-0.216-0.352-0.321-0.905-0.314-1.657 0.007-0.753 0.157-1.534 0.451-2.343 0.293-0.809 0.742-1.485 1.346-2.028v0c0.514-0.461 1.26-0.781 2.239-0.958v0c-0.85-1.403-1.649-2.78-2.396-4.13v0c-2.455-4.459-3.654-8.289-3.596-11.489 0.058-3.201 1.145-5.751 3.263-7.652zM53.878 49.233l-1.669-2.802c-0.354 0.062-0.712 0.18-1.077 0.352-0.364 0.172-0.66 0.36-0.886 0.563v0c-0.444 0.398-0.702 0.926-0.777 1.584-0.069 0.653 0.06 1.289 0.387 1.906v0c0.236 0.435 0.707 1.249 1.415 2.444v0c0.511 0.833 0.891 1.489 1.138 1.968v0c0.317 0.353 0.686 0.581 1.107 0.685 0.412 0.104 0.741 0.045 0.988-0.177v0c0.57-0.511 0.812-1.366 0.729-2.565-0.079-1.203-0.531-2.523-1.355-3.958zM71.359 34.566c0.288-0.126 0.513-0.081 0.678 0.135v0c0.279 0.366 0.456 1.185 0.531 2.457 0.075 1.271-0.042 2.553-0.352 3.845-0.308 1.283-0.869 2.234-1.683 2.854v0c-0.609 0.464-1.276 0.666-2.002 0.607-0.725-0.069-1.328-0.401-1.809-0.998v0c0.016 0.882-0.084 1.733-0.301 2.555-0.221 0.816-0.569 1.405-1.043 1.766v0c-0.474 0.361-1.118 0.55-1.932 0.566-0.809 0.012-1.399-0.165-1.77-0.529v0l-4.317-8.463c-0.158-0.331-0.168-0.549-0.027-0.656v0c0.183-0.14 0.564-0.328 1.141-0.563 0.583-0.24 0.92-0.301 1.011-0.183v0c0.037 0.048 0.195 0.401 0.473 1.057v0c0.338 0.756 0.879 1.902 1.624 3.438 0.745 1.536 1.293 2.63 1.646 3.281v0c0.197 0.191 0.458 0.299 0.782 0.323 0.324 0.034 0.615-0.047 0.874-0.245v0c0.447-0.341 0.709-0.958 0.787-1.851 0.077-0.893-0.148-2.021-0.675-3.382v0c-0.436-1.141-1.262-2.952-2.479-5.431v0c-0.095-0.192-0.072-0.341 0.068-0.447v0c0.194-0.148 0.558-0.323 1.093-0.527 0.535-0.203 0.86-0.23 0.975-0.079v0c0.77 1.926 1.492 3.649 2.166 5.171 0.67 1.516 1.157 2.473 1.461 2.872v0c0.222 0.291 0.495 0.466 0.821 0.524 0.33 0.064 0.662-0.032 0.995-0.286v0c0.641-0.489 1.086-1.424 1.336-2.806 0.251-1.392 0.227-3.06-0.072-5.005zM77.426 39.162c-0.719 0.447-1.501 0.691-2.346 0.73-0.851 0.043-1.608-0.052-2.272-0.286-0.664-0.233-1.081-0.488-1.253-0.764v0c-0.434-1.429-0.794-2.545-1.079-3.349-0.285-0.804-0.617-1.69-0.997-2.659v0c-0.147-0.339-0.107-0.839 0.121-1.499 0.222-0.657 0.565-1.317 1.029-1.98 0.459-0.66 0.95-1.153 1.473-1.479v0c0.633-0.394 1.349-0.62 2.149-0.68 0.804-0.054 1.389 0.213 1.754 0.799v0c0.437 0.702 0.291 1.518-0.437 2.45v0l-0.12 0.039c-0.394-0.569-0.893-1-1.499-1.293-0.6-0.297-1.089-0.327-1.469-0.091v0c-0.357 0.222-0.614 0.654-0.773 1.295-0.153 0.638-0.149 1.158 0.013 1.559v0c0.609 1.568 1.268 3.319 1.978 5.255v0c0.413 0.485 0.883 0.779 1.41 0.882 0.527 0.103 1.216-0.11 2.067-0.64v0c1.058-0.658 1.973-1.65 2.743-2.976 0.767-1.331 0.954-3.083 0.56-5.254v0c0.322-0.2 0.624-0.073 0.907 0.381v0c0.487 0.782 0.574 1.82 0.263 3.115-0.317 1.298-0.884 2.56-1.7 3.786-0.819 1.235-1.659 2.122-2.522 2.659zM89.801 26.501c0.17 0.081 0.295 0.199 0.376 0.356v0c0.061 0.121 0.119 0.316 0.172 0.585v0c0.038 0.672-0.181 1.51-0.658 2.513-0.486 1-1.121 1.947-1.905 2.841-0.784 0.893-1.544 1.528-2.28 1.903v0c-0.821 0.418-1.587 0.497-2.297 0.235-0.705-0.264-1.271-0.816-1.699-1.655v0c-0.47-0.923-1.266-3.335-2.386-7.233v0l-2.488 1.404c-0.018 0.009-0.077-0.018-0.178-0.08-0.091-0.06-0.158-0.109-0.201-0.149v0c-0.008-0.688 0.014-1.197 0.066-1.527v0l2.335-1.19-1.821-6.506c0.776-1.178 1.577-2.096 2.406-2.754v0c0.072-0.037 0.178-0.03 0.318 0.02 0.143 0.041 0.232 0.098 0.269 0.171v0c-0.522 0.676-0.671 1.421-0.446 2.234v0c0.3 1.185 0.826 3.084 1.579 5.695v0l4.838-2.431c0.016 0.076 0.065 0.18 0.148 0.313 0.077 0.136 0.132 0.237 0.166 0.303v0c0.077 0.151 0.092 0.284 0.044 0.399-0.051 0.109-0.164 0.209-0.339 0.298v0l-4.438 2.524c1.086 3.742 1.859 6.066 2.32 6.971v0c0.237 0.465 0.545 0.771 0.925 0.919 0.38 0.149 0.826 0.092 1.339-0.169v0c0.766-0.391 1.482-1.12 2.147-2.188 0.661-1.074 1.224-2.342 1.688-3.802zM93.298 30.883c-0.817 0.345-1.555 0.4-2.215 0.163-0.662-0.228-1.195-0.819-1.598-1.773v0c-0.098-0.231-0.163-0.413-0.197-0.545v0l-0.853-4.394c-0.415-1.957-0.655-3.161-0.72-3.611v0c0.004-0.252 0.1-0.494 0.288-0.728 0.192-0.243 0.446-0.431 0.764-0.566v0c0.281-0.119 0.54-0.158 0.777-0.119 0.235 0.033 0.392 0.118 0.471 0.254v0c0.322 1.805 0.844 4.452 1.568 7.94v0c0.042 0.151 0.112 0.343 0.209 0.573v0c0.208 0.493 0.463 0.801 0.766 0.924 0.302 0.123 0.659 0.097 1.07-0.078v0c0.705-0.298 1.359-0.872 1.963-1.723 0.6-0.842 1.09-1.788 1.47-2.838 0.38-1.05 0.609-2.03 0.689-2.938v0c0.307-0.005 0.513 0.118 0.619 0.368v0c0.074 0.175 0.116 0.37 0.126 0.586 0.01 0.216 0.017 0.353 0.019 0.411v0c0 0.941-0.246 1.975-0.74 3.103-0.494 1.128-1.147 2.15-1.958 3.067-0.811 0.916-1.651 1.558-2.518 1.924zM87.919 16.534c-0.424 0.179-0.797 0.193-1.118 0.042-0.33-0.155-0.585-0.444-0.764-0.868v0c-0.232-0.549-0.268-1.078-0.108-1.587 0.163-0.503 0.519-0.87 1.068-1.102v0c0.424-0.179 0.799-0.205 1.125-0.078 0.328 0.133 0.582 0.412 0.761 0.836v0c0.232 0.549 0.263 1.091 0.092 1.627-0.173 0.529-0.525 0.906-1.056 1.13zM110.859 13.724c0.261 0.017 0.438 0.174 0.532 0.471v0c0.161 0.51 0.069 1.075-0.275 1.695-0.349 0.628-0.875 1.213-1.578 1.754-0.707 0.549-1.481 0.957-2.321 1.221v0c-0.659 0.208-1.37 0.318-2.133 0.331v0c0.021 0.135 0.037 0.287 0.047 0.454 0.017 0.165 0.041 0.367 0.074 0.606v0c0.04 0.307 0.103 0.88 0.19 1.719 0.093 0.837 0.176 1.425 0.247 1.765v0c-0.051 0.357-0.25 0.817-0.599 1.381-0.348 0.564-0.796 1.092-1.343 1.584-0.546 0.499-1.132 0.847-1.759 1.044v0c-0.601 0.189-1.261 0.234-1.982 0.135-0.712-0.095-1.354-0.33-1.926-0.704-0.572-0.374-0.951-0.854-1.136-1.442v0c-0.053-1.07-0.116-1.945-0.188-2.626-0.074-0.687-0.208-1.653-0.401-2.898v0c-0.067-0.462 0.081-1.027 0.446-1.696 0.365-0.669 0.876-1.288 1.534-1.857 0.652-0.568 1.346-0.967 2.083-1.2v0l0.359-0.113c-0.054-0.352-0.002-0.638 0.155-0.858 0.151-0.218 0.427-0.39 0.828-0.517v0c0.607-0.191 1.029-0.193 1.266-0.004v0c0.061 0.826 0.144 1.403 0.248 1.733v0c0.26 0.827 0.763 1.386 1.508 1.676 0.745 0.291 1.65 0.268 2.717-0.067v0c0.898-0.283 1.664-0.726 2.297-1.331 0.64-0.606 1.01-1.359 1.11-2.256zM101.752 26.169c0.362-0.114 0.695-0.364 0.999-0.752 0.304-0.387 0.466-0.765 0.484-1.133v0c-0.124-1.047-0.215-1.945-0.273-2.694v0c-0.023-0.277-0.066-0.718-0.129-1.322-0.056-0.607-0.12-1.148-0.192-1.623v0c-0.603-0.314-1.061-0.777-1.374-1.389v0c-0.022-0.071-0.056-0.132-0.1-0.181-0.042-0.044-0.095-0.066-0.16-0.067v0c-0.122-0.004-0.283 0.025-0.483 0.088v0c-0.627 0.197-1.083 0.54-1.37 1.028-0.289 0.481-0.398 1.024-0.329 1.627v0c0.178 1.918 0.335 3.633 0.47 5.146v0c0.198 0.562 0.551 0.949 1.058 1.158 0.506 0.21 0.973 0.248 1.399 0.114zM124.883 15.385c0.166-0.032 0.308 0.005 0.426 0.113 0.123 0.1 0.203 0.247 0.241 0.44v0c0.099 0.505-0.071 1.315-0.51 2.428-0.438 1.114-1.112 2.156-2.019 3.127-0.908 0.971-2.003 1.581-3.287 1.831v0c-0.984 0.192-1.792 0.101-2.424-0.272-0.626-0.382-1.017-0.968-1.171-1.759v0c-0.092-0.472-0.116-1.075-0.073-1.808 0.043-0.733 0.121-1.659 0.235-2.778v0c0.109-1.036 0.184-1.958 0.226-2.767v0c-0.043-0.116-0.131-0.161-0.264-0.135v0c-0.266 0.052-0.708 0.493-1.326 1.325-0.626 0.826-1.225 1.733-1.798 2.721-0.565 0.994-0.894 1.717-0.985 2.169v0c-0.042 1.589-0.05 2.643-0.025 3.163 0.017 0.514 0.025 0.799 0.022 0.854v0c-0.008 0.064-0.014 0.141-0.017 0.232-0.004 0.084-0.018 0.138-0.041 0.163-0.023 0.025-0.064 0.044-0.123 0.055v0c-0.279 0.054-0.725 0.121-1.338 0.199-0.611 0.085-0.925 0.087-0.941 0.007v0c-0.019-0.7-0.002-2.17 0.051-4.409v0c-0.011-0.55-0.014-0.815-0.01-0.795v0l0.063-6.472c-0.006-0.137 0.022-0.225 0.083-0.264 0.055-0.038 0.188-0.078 0.401-0.12v0c0.884-0.172 1.553-0.158 2.006 0.044v0c-0.006 0.077-0.021 0.566-0.045 1.468-0.019 0.894-0.079 2.034-0.182 3.42v0c0.807-1.489 1.664-2.861 2.572-4.114 0.915-1.255 1.568-1.921 1.961-1.997v0c0.213-0.041 0.655-0.021 1.326 0.062 0.673 0.09 1.039 0.194 1.097 0.314v0l-0.133 2.024c-0.143 1.85-0.236 3.317-0.28 4.402-0.044 1.085-0.012 1.903 0.095 2.455v0c0.169 0.864 0.658 1.217 1.47 1.059v0c0.658-0.128 1.329-0.528 2.012-1.2 0.683-0.672 1.268-1.479 1.753-2.422 0.491-0.951 0.808-1.872 0.952-2.763zM132.164 13.124c-0.938-0.295-1.707-0.856-2.307-1.683-0.593-0.82-0.882-1.883-0.867-3.191v0c0.018-1.537 0.467-2.873 1.347-4.008 0.873-1.135 2.072-2.001 3.596-2.6 1.531-0.599 3.255-0.887 5.172-0.865v0c0.921 0.011 1.821 0.085 2.7 0.225 0.872 0.132 1.883 0.32 3.031 0.563v0c0.689 0.143 1.379 0.273 2.069 0.39 0.69 0.11 1.285 0.167 1.786 0.173v0c0.847 0.01 1.624-0.12 2.331-0.389 0.701-0.27 1.275-0.71 1.722-1.322v0c-0.09 1.327-0.542 2.365-1.357 3.114-0.815 0.749-1.954 1.115-3.416 1.098v0c-0.847-0.01-1.695-0.128-2.546-0.354-0.851-0.233-1.968-0.578-3.351-1.035v0c-1.147-0.42-2.112-0.736-2.895-0.948-0.79-0.206-1.531-0.312-2.222-0.32v0c-1.09-0.013-2.025 0.254-2.803 0.801-0.772 0.547-1.363 1.264-1.773 2.153-0.403 0.889-0.611 1.842-0.622 2.859v0c-0.013 1.138 0.25 2.103 0.789 2.894 0.539 0.792 1.422 1.493 2.648 2.104v0l-0.124 0.151c-1.497-0.017-2.466 0.046-2.908 0.19zM131.137 21.941c-0.867-0.01-1.672-0.104-2.414-0.282-0.75-0.171-1.364-0.365-1.843-0.58v0c-0.149-0.598-0.219-1.262-0.211-1.994v0l0.177-0.313c1.237 1.362 2.72 2.053 4.446 2.074v0c3.19 0.037 5.319-2.15 6.386-6.561v0c0.931-3.776 1.648-6.612 2.151-8.51v0c0.392-0.51 0.861-0.969 1.408-1.376 0.553-0.407 1.061-0.706 1.524-0.897v0l0.263 0.095c-0.354 0.727-0.683 1.689-0.988 2.884-0.298 1.196-0.691 2.905-1.177 5.128v0c-0.166 0.845-0.359 1.72-0.579 2.625v0c-0.709 2.722-1.863 4.693-3.462 5.914-1.599 1.221-3.493 1.819-5.681 1.793zM164.457 12.732c0.232 0.122 0.33 0.337 0.295 0.647v0c-0.06 0.532-0.373 1.011-0.94 1.438-0.574 0.433-1.292 0.754-2.153 0.963-0.87 0.215-1.742 0.274-2.617 0.175v0c-0.687-0.078-1.381-0.265-2.084-0.562v0c-0.035 0.132-0.082 0.277-0.141 0.434-0.052 0.158-0.111 0.352-0.178 0.583v0c-0.088 0.297-0.263 0.846-0.524 1.648-0.254 0.803-0.418 1.374-0.49 1.714v0c-0.191 0.306-0.56 0.646-1.107 1.02-0.547 0.375-1.17 0.676-1.871 0.903-0.701 0.234-1.378 0.315-2.031 0.241v0c-0.626-0.071-1.248-0.298-1.866-0.681-0.612-0.376-1.104-0.851-1.475-1.425-0.371-0.574-0.523-1.167-0.453-1.779v0c0.386-0.999 0.683-1.825 0.893-2.475 0.211-0.658 0.48-1.595 0.808-2.813v0c0.126-0.449 0.491-0.906 1.096-1.369 0.604-0.463 1.323-0.822 2.156-1.075 0.826-0.254 1.623-0.338 2.39-0.252v0l0.374 0.042c0.093-0.344 0.257-0.584 0.49-0.721 0.227-0.138 0.549-0.183 0.966-0.137v0c0.633 0.071 1.019 0.241 1.16 0.51v0c-0.279 0.78-0.438 1.341-0.477 1.684v0c-0.097 0.862 0.136 1.576 0.699 2.144 0.563 0.568 1.4 0.915 2.51 1.04v0c0.936 0.106 1.815 0.011 2.639-0.284 0.831-0.295 1.474-0.832 1.931-1.613zM151.084 20.414c0.377 0.043 0.783-0.051 1.218-0.282 0.435-0.23 0.736-0.51 0.903-0.838v0c0.311-1.008 0.592-1.866 0.843-2.574v0c0.091-0.262 0.23-0.683 0.418-1.261 0.195-0.578 0.356-1.098 0.483-1.561v0c-0.424-0.532-0.655-1.141-0.693-1.827v0c0.008-0.074 0.003-0.143-0.018-0.206-0.021-0.057-0.06-0.099-0.119-0.126v0c-0.11-0.053-0.269-0.092-0.477-0.116v0c-0.653-0.074-1.209 0.054-1.669 0.385-0.459 0.323-0.779 0.774-0.961 1.353v0c-0.615 1.825-1.167 3.457-1.657 4.895v0c-0.047 0.595 0.119 1.09 0.497 1.487 0.378 0.397 0.789 0.621 1.232 0.671zM187.789 27.264c0.171 0.219 0.213 0.464 0.125 0.734v0c-0.155 0.477-0.512 0.877-1.073 1.201-0.561 0.324-1.203 0.525-1.927 0.603-0.723 0.079-1.385 0.021-1.983-0.174v0c-0.953-0.309-1.568-0.897-1.842-1.762-0.275-0.865-0.388-1.579-0.342-2.14 0.053-0.559 0.2-1.548 0.439-2.966v0c0.067-0.405 0.049-0.689-0.055-0.851-0.108-0.17-0.372-0.324-0.79-0.46v0l-4.648-1.476c-2.291 1.948-4.207 3.242-5.747 3.882-1.539 0.64-2.985 0.74-4.338 0.301v0c-0.844-0.274-1.432-0.646-1.763-1.117-0.331-0.471-0.411-0.97-0.24-1.499v0c0.136-0.419 0.397-0.751 0.782-0.996 0.377-0.241 0.834-0.342 1.37-0.303v0c-0.236 0.728-0.288 1.249-0.155 1.563 0.125 0.318 0.425 0.555 0.902 0.709v0c0.915 0.297 1.924 0.226 3.028-0.213 1.1-0.448 2.618-1.408 4.556-2.88v0c-0.415-0.17-0.688-0.337-0.82-0.501-0.138-0.166-0.172-0.358-0.101-0.578v0c0.054-0.168 0.173-0.378 0.355-0.632 0.182-0.254 0.33-0.402 0.443-0.444v0c0.261 0.206 0.818 0.518 1.672 0.938v0c1.524-1.229 3.211-2.632 5.062-4.211 1.845-1.58 2.965-2.541 3.361-2.883v0c0.532-0.454 1.288-1.106 2.269-1.955v0c0.326-0.257 0.6-0.432 0.821-0.524 0.222-0.092 0.468-0.094 0.739-0.006v0c0.238 0.077 0.506 0.218 0.803 0.421v0c-0.306 0.264-0.608 0.689-0.905 1.277-0.306 0.591-0.584 1.238-0.833 1.941v0l-0.396 1.121c-0.307 0.947-0.644 2.062-1.011 3.346-0.367 1.284-0.652 2.338-0.856 3.162v0c-0.413 1.646-0.705 2.983-0.874 4.01-0.176 1.025-0.188 1.919-0.037 2.68 0.143 0.766 0.534 1.252 1.172 1.459v0c0.425 0.138 0.884 0.13 1.375-0.024 0.491-0.154 0.979-0.405 1.462-0.753zM179.791 19.85c0.515 0.167 1.163 0.356 1.942 0.567v0l1.367-4.31c0.498-1.533 0.974-2.782 1.429-3.745v0c-2.553 2.141-4.101 3.454-4.644 3.941v0l-2.843 2.506c1.014 0.429 1.931 0.776 2.749 1.041zM202.189 30.051c0.396 0.191 0.458 0.571 0.184 1.138v0c-0.144 0.299-0.343 0.579-0.597 0.84v0c-0.603 0.641-1.467 1.161-2.591 1.558-1.118 0.4-2.321 0.594-3.61 0.582-1.282-0.01-2.477-0.282-3.587-0.819v0c-1.226-0.592-2.012-1.363-2.359-2.312-0.343-0.94-0.247-1.966 0.29-3.075v0c0.459-0.952 1.498-2.541 3.114-4.769 1.617-2.228 3.346-4.515 5.186-6.861 1.84-2.346 3.208-4.028 4.106-5.046v0c2.458-2.8 4.473-3.82 6.047-3.06v0c0.781 0.377 1.189 1.011 1.226 1.9 0.043 0.893-0.2 1.886-0.727 2.978v0c-1.054 2.184-2.998 4.464-5.831 6.842-2.833 2.378-5.855 4.454-9.066 6.228v0c-0.67 1.045-1.16 1.888-1.469 2.529v0c-0.468 0.97-0.64 1.707-0.514 2.211 0.128 0.513 0.513 0.924 1.153 1.234v0c0.866 0.418 1.856 0.588 2.97 0.508 1.117-0.085 2.217-0.362 3.301-0.832 1.078-0.472 2.003-1.064 2.774-1.774zM204.495 12.752c-1.395 1.613-2.903 3.419-4.524 5.42-1.614 2.004-3.052 3.867-4.312 5.59v0c2.395-1.642 4.695-3.532 6.901-5.671 2.203-2.133 3.723-4.065 4.559-5.798v0c0.259-0.537 0.421-1.004 0.485-1.402 0.061-0.392-0.006-0.635-0.2-0.729v0c-0.171-0.082-0.449 0.043-0.836 0.375-0.383 0.342-1.074 1.08-2.073 2.215zM212.155 30.979c0.096 0.2 0.107 0.357 0.033 0.47v0c-0.114 0.176-1.32 1.396-3.616 3.659-2.3 2.269-3.675 3.625-4.125 4.069v0l-1.334 1.325c-4.271 4.195-8.047 6.696-11.328 7.504-3.29 0.81-6.258 0.354-8.904-1.367v0c-1.738-1.13-2.747-2.292-3.029-3.485-0.277-1.19-0.095-2.276 0.543-3.258v0c0.222-0.341 0.492-0.67 0.812-0.988 0.32-0.317 0.613-0.539 0.88-0.663v0c-0.201 1.291-0.017 2.461 0.553 3.51 0.574 1.044 1.44 1.942 2.598 2.696v0c2.078 1.352 4.16 1.797 6.246 1.335 2.095-0.463 3.889-1.284 5.382-2.462 1.503-1.18 2.929-2.491 4.278-3.932v0c0.091-0.102 0.493-0.528 1.206-1.276v0c-0.574 0.038-1.124 0.008-1.65-0.092-0.531-0.103-0.958-0.26-1.281-0.47v0c-0.42-0.273-0.792-0.713-1.117-1.32-0.328-0.601-0.54-1.22-0.636-1.855-0.09-0.632-0.015-1.133 0.225-1.502v0c1.345-1.298 2.792-2.765 4.341-4.401v0c0.291-0.311 0.837-0.535 1.635-0.669 0.799-0.135 1.621-0.157 2.468-0.068 0.843 0.096 1.491 0.291 1.946 0.587v0c0.29 0.188 0.566 0.465 0.829 0.83 0.263 0.365 0.471 0.767 0.622 1.205v0l1.044-1.176 0.11 0.035c0.011 0.169 0.13 0.384 0.357 0.645 0.229 0.27 0.362 0.425 0.4 0.466v0c0.295 0.329 0.466 0.545 0.512 0.648zM204.751 35.653l3.42-3.617c0.342-0.351 0.535-0.561 0.579-0.63v0c-0.168-0.699-0.524-1.226-1.07-1.58v0c-0.534-0.347-1.158-0.474-1.872-0.381-0.718 0.098-1.357 0.402-1.915 0.912v0l-1.907 1.983-1.598 1.712c-0.273 0.42-0.368 0.876-0.284 1.367 0.084 0.491 0.311 0.857 0.681 1.097v0c0.29 0.188 0.665 0.295 1.125 0.32 0.466 0.029 0.951-0.052 1.454-0.242 0.503-0.19 0.966-0.503 1.387-0.941zM227.338 44.364c0.134 0.225 0.104 0.46-0.087 0.705v0c-0.33 0.421-0.848 0.666-1.554 0.733-0.715 0.068-1.495-0.035-2.339-0.308-0.853-0.272-1.627-0.679-2.32-1.222v0c-0.544-0.426-1.037-0.949-1.48-1.571v0c-0.099 0.094-0.215 0.193-0.348 0.296-0.127 0.107-0.279 0.242-0.457 0.403v0c-0.23 0.207-0.667 0.583-1.31 1.13-0.637 0.551-1.076 0.952-1.315 1.202v0c-0.323 0.16-0.815 0.256-1.477 0.289-0.662 0.033-1.351-0.038-2.067-0.21-0.72-0.168-1.339-0.454-1.856-0.859v0c-0.496-0.388-0.907-0.907-1.233-1.558-0.324-0.641-0.494-1.303-0.51-1.986-0.016-0.683 0.166-1.268 0.546-1.753v0c0.852-0.649 1.538-1.196 2.058-1.641 0.524-0.45 1.245-1.107 2.162-1.972v0c0.342-0.317 0.893-0.514 1.65-0.592 0.758-0.078 1.558-0.007 2.4 0.213 0.837 0.216 1.56 0.562 2.168 1.038v0l0.296 0.232c0.26-0.244 0.525-0.363 0.796-0.358 0.266 0.001 0.564 0.131 0.894 0.391v0c0.501 0.392 0.742 0.739 0.721 1.041v0c-0.646 0.518-1.075 0.913-1.289 1.185v0c-0.534 0.683-0.71 1.414-0.528 2.192 0.182 0.779 0.713 1.512 1.593 2.201v0c0.742 0.58 1.541 0.96 2.398 1.14 0.862 0.184 1.692 0.064 2.488-0.361zM211.924 43.901c0.299 0.234 0.694 0.366 1.185 0.398 0.491 0.032 0.894-0.049 1.208-0.242v0c0.793-0.695 1.482-1.279 2.066-1.75v0c0.215-0.176 0.554-0.461 1.017-0.855 0.469-0.39 0.878-0.749 1.23-1.077v0c-0.082-0.675 0.04-1.315 0.366-1.919v0c0.046-0.059 0.077-0.12 0.093-0.185 0.012-0.059 0-0.116-0.035-0.17v0c-0.066-0.103-0.181-0.219-0.346-0.348v0c-0.517-0.405-1.058-0.587-1.623-0.547-0.56 0.035-1.069 0.251-1.528 0.649v0c-1.48 1.233-2.806 2.333-3.975 3.301v0c-0.351 0.482-0.47 0.991-0.357 1.527 0.114 0.536 0.347 0.942 0.699 1.218zM235.35 52.699c0.046 0.176 0.016 0.321-0.093 0.433v0c-0.291 0.302-0.709 0.487-1.254 0.555-0.54 0.063-1.126-0.022-1.758-0.254-0.632-0.233-1.211-0.603-1.738-1.11v0c-0.732-0.705-1.139-1.459-1.221-2.263-0.077-0.799 0.149-1.502 0.679-2.11v0c-0.666-0.529-1.442-0.797-2.328-0.805-0.891-0.003-1.761 0.203-2.612 0.616v0l-0.035 0.037v0c-0.195 0.085-0.332 0.155-0.413 0.209v0c-0.55 0.326-2.185 1.487-4.907 3.483v0c-0.146 0.122-0.51-0.096-1.09-0.655v0c-0.556-0.536-0.74-0.901-0.552-1.097v0c0.103-0.107 0.417-0.35 0.942-0.728v0c1.597-1.16 3.269-2.353 5.013-3.579 1.745-1.225 2.764-1.922 3.058-2.09v0c0.256-0.158 0.49-0.201 0.702-0.128 0.212 0.073 0.443 0.229 0.691 0.468v0c0.468 0.451 0.802 0.905 1.003 1.361v0c-0.413 0.214-1.111 0.636-2.096 1.268v0c0.921-0.185 1.788-0.206 2.6-0.063 0.812 0.143 1.474 0.461 1.986 0.955v0c0.234 0.226 0.404 0.45 0.509 0.673 0.105 0.223 0.139 0.397 0.103 0.522v0c-1.358 1.41-1.52 2.613-0.486 3.609v0c0.834 0.804 1.933 1.035 3.297 0.693zM227.883 60.349c-0.591-0.662-0.88-1.343-0.869-2.043 0.002-0.7 0.389-1.395 1.163-2.085v0c0.187-0.167 0.338-0.288 0.452-0.363v0l3.884-2.224c1.719-1.024 2.78-1.64 3.186-1.847v0c0.239-0.077 0.5-0.065 0.782 0.038 0.292 0.103 0.552 0.283 0.782 0.541v0c0.203 0.227 0.324 0.46 0.363 0.697 0.044 0.233 0.015 0.409-0.088 0.528v0c-1.605 0.887-3.942 2.235-7.01 4.046v0c-0.13 0.089-0.288 0.216-0.475 0.383v0c-0.399 0.356-0.608 0.697-0.627 1.021-0.019 0.325 0.121 0.655 0.418 0.989v0c0.509 0.571 1.264 1.005 2.264 1.302 0.99 0.297 2.044 0.455 3.161 0.476 1.117 0.021 2.118-0.078 3.003-0.296v0c0.103 0.289 0.054 0.524-0.148 0.704v0c-0.142 0.126-0.313 0.229-0.514 0.309-0.201 0.08-0.329 0.13-0.383 0.151v0c-0.891 0.304-1.949 0.404-3.176 0.3-1.227-0.104-2.405-0.392-3.534-0.864-1.129-0.472-2.007-1.06-2.634-1.763zM239.73 50.629c-0.307-0.344-0.44-0.692-0.401-1.044 0.04-0.362 0.232-0.697 0.576-1.004v0c0.445-0.397 0.934-0.601 1.467-0.614 0.528-0.008 0.991 0.21 1.387 0.655v0c0.307 0.344 0.452 0.69 0.437 1.04-0.02 0.354-0.202 0.684-0.546 0.991v0c-0.445 0.397-0.948 0.601-1.51 0.611-0.557 0.006-1.027-0.205-1.41-0.635zM242.265 69.899c-0.049 0.182-0.143 0.326-0.283 0.434v0c-0.108 0.082-0.289 0.174-0.544 0.275v0c-0.654 0.159-1.518 0.094-2.591-0.195-1.071-0.298-2.117-0.752-3.137-1.363-1.02-0.61-1.781-1.244-2.282-1.901v0c-0.559-0.732-0.774-1.471-0.645-2.217 0.133-0.741 0.574-1.397 1.322-1.968v0c0.824-0.629 3.052-1.845 6.686-3.649v0l-1.829-2.195c-0.012-0.016 0.003-0.079 0.047-0.19 0.042-0.101 0.079-0.175 0.11-0.224v0c0.675-0.132 1.18-0.202 1.514-0.21v0l1.591 2.083 6.072-2.963c1.299 0.551 2.346 1.175 3.142 1.871v0c0.049 0.065 0.062 0.17 0.037 0.317-0.015 0.148-0.055 0.246-0.119 0.295v0c-0.759-0.392-1.519-0.404-2.279-0.037v0c-1.112 0.508-2.885 1.368-5.318 2.578v0l3.263 4.323c-0.072 0.029-0.165 0.096-0.281 0.201-0.12 0.1-0.209 0.173-0.268 0.218v0c-0.135 0.103-0.263 0.141-0.385 0.115-0.117-0.03-0.235-0.123-0.354-0.279v0l-3.281-3.912c-3.485 1.741-5.632 2.92-6.44 3.537v0c-0.415 0.317-0.661 0.675-0.738 1.075-0.078 0.4 0.058 0.829 0.407 1.287v0c0.522 0.684 1.368 1.256 2.539 1.717 1.176 0.457 2.524 0.783 4.044 0.977zM271.573 68.138c0.732 1.219 1.018 2.379 0.856 3.479-0.152 1.102-0.551 2.049-1.198 2.841-0.647 0.791-1.342 1.41-2.085 1.856v0l-0.47 0.045c0.929-1.071 1.444-2.108 1.546-3.109 0.102-1.001-0.189-2.071-0.872-3.209v0c-1.416-2.358-3.68-3.656-6.795-3.896-3.111-0.234-7.275 0.588-12.492 2.464v0c-0.553 0.198-1.773 0.626-3.661 1.285v0l-1.399 0.473c1.404 0.168 2.796 0.459 4.173 0.872 1.381 0.419 2.19 0.826 2.428 1.22v0c0.139 0.232 0.23 0.66 0.272 1.283 0.036 0.626-0.004 0.974-0.12 1.044v0c-1.292 0.349-2.786 0.808-4.483 1.376-1.693 0.574-2.854 1.05-3.481 1.426v0c-0.877 0.526-1.068 1.202-0.572 2.026v0c0.404 0.674 1.071 1.218 1.999 1.633 0.926 0.424 1.93 0.702 3.013 0.833 1.088 0.129 2.039 0.107 2.852-0.065v0c0.023 0.144 0.016 0.271-0.021 0.38-0.034 0.115-0.14 0.227-0.32 0.335v0c-0.18 0.108-0.384 0.195-0.614 0.261v0c-0.714 0.231-1.659 0.237-2.833 0.018-1.171-0.213-2.304-0.62-3.398-1.218-1.1-0.596-1.922-1.346-2.466-2.253v0c-0.495-0.825-0.637-1.601-0.426-2.327 0.214-0.737 0.747-1.361 1.601-1.874v0c0.592-0.356 1.346-0.686 2.261-0.99 0.915-0.305 2.223-0.706 3.922-1.205v0c0.053-0.056 0.082-0.12 0.085-0.194 0.001-0.064-0.014-0.122-0.045-0.174v0c-0.108-0.18-0.515-0.398-1.221-0.653-0.716-0.258-1.56-0.466-2.532-0.625-0.969-0.153-1.87-0.181-2.705-0.083v0c-0.309 0.091-0.974 0.344-1.996 0.76v0l-1.626 0.609c-0.419 0.157-0.692 0.222-0.819 0.195-0.123-0.021-0.244-0.13-0.362-0.327v0c-0.248-0.412-0.44-0.826-0.579-1.241-0.135-0.409-0.122-0.65 0.04-0.723v0l1.037-0.385c2.464-0.831 4.182-1.417 5.155-1.756 0.973-0.339 1.705-0.601 2.195-0.785v0c0.749-0.292 1.886-0.714 3.411-1.266v0c4.154-1.53 7.779-2.419 10.878-2.667 3.098-0.248 5.618 0.02 7.558 0.806 1.941 0.786 3.377 1.954 4.309 3.505zM259.449 100.222c0.092 0.211 0.11 0.403 0.053 0.576-0.063 0.176-0.207 0.313-0.43 0.41v0c-0.533 0.234-1.399 0.277-2.595 0.129-1.194-0.142-2.352-0.514-3.474-1.117-1.128-0.6-1.92-1.418-2.374-2.454v0c-0.408-0.93-0.473-1.863-0.196-2.799 0.274-0.926 0.824-1.57 1.649-1.932v0c0.459-0.201 1.093-0.357 1.902-0.468 0.813-0.12 1.764-0.226 2.855-0.32v0c1.034-0.121 1.631-0.194 1.79-0.219v0c0.056-0.024 0.089-0.083 0.1-0.177 0.013-0.087 0.005-0.165-0.025-0.233v0c-0.147-0.335-0.979-0.665-2.497-0.991-1.516-0.319-2.772-0.511-3.77-0.577v0c-0.637 0.065-2.041 0.303-4.212 0.716v0c-0.33 0.056-0.558 0.086-0.683 0.089-0.124 0.003-0.206-0.039-0.244-0.126v0c-0.046-0.105-0.095-0.343-0.146-0.713-0.042-0.366-0.048-0.708-0.016-1.024 0.025-0.314 0.109-0.503 0.251-0.566v0c0.23-0.101 0.667-0.2 1.312-0.297v0c1.662-0.241 2.995-0.448 3.998-0.622 1.006-0.168 2.219-0.404 3.639-0.708v0c0.096-0.168 0.109-0.333 0.039-0.494v0c-0.114-0.261-0.561-0.52-1.34-0.778-0.772-0.26-1.737-0.477-2.892-0.65-1.156-0.174-2.328-0.274-3.515-0.301v0c-1.286 0.187-2.522 0.414-3.706 0.683v0c-0.101-0.23-0.222-0.675-0.365-1.338-0.143-0.662-0.142-1.025 0-1.087v0c0.124-0.054 0.55-0.138 1.278-0.25v0l0.74-0.158c0.384-0.087 1.544-0.326 3.48-0.717 1.945-0.387 3.881-0.729 5.807-1.026v0c0.169-0.037 0.299-0.043 0.392-0.017 0.096 0.017 0.167 0.078 0.214 0.184v0c0.063 0.143 0.165 0.538 0.308 1.185 0.152 0.651 0.211 1.013 0.178 1.087v0c-1.586 0.296-3.233 0.579-4.943 0.847v0c1.283 0.11 2.385 0.304 3.306 0.581 0.92 0.277 1.629 0.587 2.127 0.931 0.496 0.337 0.8 0.636 0.915 0.896v0c0.101 0.23 0.164 0.679 0.191 1.348 0.036 0.672-0.008 1.035-0.132 1.089v0c-0.906 0.227-2.008 0.448-3.304 0.662v0c3.577 0.635 5.547 1.365 5.908 2.19v0c0.139 0.316 0.221 0.783 0.248 1.4 0.033 0.614-0.075 0.976-0.323 1.085v0c-0.698 0.077-1.028 0.118-0.989 0.123v0c-1.723 0.186-3.124 0.364-4.203 0.534-1.079 0.17-1.917 0.386-2.512 0.647v0c-1.092 0.479-1.413 1.23-0.965 2.253v0c0.433 0.986 1.306 1.713 2.62 2.18 1.317 0.473 2.834 0.584 4.551 0.334zM252.633 103.698c-0.214-0.678-0.292-1.339-0.233-1.982 0.059-0.644 0.224-1.19 0.495-1.638 0.27-0.448 0.609-0.736 1.015-0.865v0c0.362-0.114 0.69-0.076 0.985 0.115 0.295 0.191 0.51 0.446 0.647 0.765v0c-0.66 0.45-1.131 0.961-1.412 1.534-0.287 0.574-0.33 1.181-0.128 1.82v0c0.208 0.659 0.587 1.136 1.135 1.431 0.546 0.289 1.094 0.347 1.643 0.173v0c0.459-0.145 0.815-0.41 1.069-0.796 0.25-0.377 0.518-0.945 0.804-1.704v0c0.295-0.775 0.587-1.379 0.876-1.811 0.287-0.439 0.696-0.742 1.226-0.91v0c0.588-0.186 1.199-0.162 1.833 0.07 0.641 0.231 1.207 0.606 1.699 1.125 0.498 0.518 0.842 1.08 1.034 1.687v0c0.214 0.678 0.261 1.377 0.141 2.097-0.125 0.729-0.397 1.159-0.817 1.292v0c-0.207 0.065-0.434 0.055-0.68-0.029-0.245-0.079-0.479-0.246-0.703-0.503v0c0.357-0.397 0.601-0.773 0.731-1.126 0.13-0.354 0.131-0.731 0.005-1.131v0c-0.139-0.439-0.383-0.785-0.733-1.036-0.35-0.252-0.744-0.308-1.183-0.17v0c-0.387 0.123-0.7 0.37-0.937 0.744-0.229 0.378-0.482 0.923-0.761 1.637v0c-0.335 0.852-0.655 1.511-0.963 1.977-0.305 0.473-0.742 0.799-1.31 0.979v0c-0.639 0.202-1.336 0.167-2.09-0.106-0.756-0.279-1.442-0.741-2.057-1.385-0.614-0.637-1.057-1.388-1.331-2.253zM7.736 178.421l0.249-0.372c0.223 0.272 0.429 0.472 0.615 0.6 0.185 0.121 0.387 0.181 0.606 0.178v0c1.935-0.059 5.033-0.235 9.295-0.528 4.271-0.289 6.779-0.496 7.527-0.622v0c0.077-0.002 0.171-0.02 0.281-0.053v0c0.279-0.084 0.439-0.235 0.479-0.452 0.049-0.213 0.004-0.55-0.134-1.01v0c-0.293-0.973-0.602-1.764-0.927-2.374v0c0.383-0.115 0.74-0.163 1.071-0.142 0.325 0.022 0.524 0.154 0.596 0.394v0c0.668 2.147 1.128 3.569 1.379 4.264 0.247 0.704 0.58 1.551 1 2.542v0c-0.003 0.107-0.135 0.21-0.395 0.31-0.262 0.093-0.479 0.158-0.652 0.196v0c-0.255-0.588-0.465-0.967-0.629-1.136-0.166-0.176-0.406-0.256-0.719-0.24v0c-0.616 0.023-4.32 0.346-11.115 0.97v0c-3.848 0.352-5.942 0.541-6.281 0.565v0c-0.507 0.032-0.93-0.211-1.27-0.731-0.334-0.522-0.659-1.308-0.976-2.359zM23.983 201.844c0.068 0.155 0.062 0.302-0.018 0.441-0.071 0.142-0.196 0.252-0.376 0.331v0c-0.472 0.207-1.299 0.218-2.481 0.033-1.183-0.185-2.347-0.614-3.492-1.288-1.146-0.674-1.981-1.61-2.506-2.807v0c-0.402-0.918-0.49-1.726-0.263-2.425 0.236-0.695 0.722-1.204 1.461-1.527v0c0.441-0.193 1.023-0.348 1.748-0.466 0.725-0.118 1.646-0.244 2.762-0.378v0c1.034-0.12 1.951-0.248 2.75-0.383v0c0.104-0.068 0.128-0.163 0.073-0.288v0c-0.109-0.248-0.636-0.583-1.582-1.004-0.943-0.43-1.959-0.817-3.048-1.16-1.093-0.335-1.87-0.497-2.332-0.487v0c-1.559 0.306-2.59 0.528-3.091 0.666-0.498 0.129-0.774 0.199-0.83 0.208v0c-0.064 0.006-0.14 0.017-0.229 0.034-0.083 0.014-0.139 0.013-0.168-0.004-0.029-0.017-0.056-0.053-0.081-0.109v0c-0.114-0.261-0.276-0.681-0.486-1.262-0.216-0.578-0.287-0.884-0.213-0.916v0c0.679-0.172 2.117-0.476 4.314-0.914v0c0.534-0.131 0.792-0.192 0.774-0.183v0l6.329-1.353c0.132-0.036 0.224-0.028 0.276 0.023 0.049 0.045 0.117 0.167 0.204 0.366v0c0.361 0.825 0.493 1.481 0.396 1.967v0c-0.076 0.011-0.557 0.104-1.442 0.277-0.876 0.177-2.002 0.367-3.378 0.57v0c1.629 0.462 3.155 0.999 4.577 1.611 1.424 0.618 2.217 1.111 2.377 1.477v0c0.087 0.199 0.163 0.635 0.229 1.308 0.06 0.676 0.037 1.056-0.067 1.139v0l-2.004 0.312c-1.836 0.264-3.289 0.494-4.357 0.688-1.068 0.194-1.86 0.404-2.375 0.63v0c-0.807 0.353-1.044 0.908-0.713 1.665v0c0.269 0.614 0.806 1.181 1.611 1.702 0.805 0.52 1.72 0.914 2.747 1.181 1.036 0.271 2.004 0.379 2.904 0.325zM27.734 211.199c-0.074 0.173-0.189 0.302-0.342 0.388v0c-0.118 0.066-0.311 0.13-0.579 0.193v0c-0.67 0.062-1.515-0.127-2.535-0.568-1.017-0.45-1.986-1.051-2.907-1.802-0.921-0.751-1.582-1.488-1.983-2.21v0c-0.447-0.805-0.553-1.568-0.318-2.288 0.239-0.714 0.77-1.299 1.593-1.756v0c0.906-0.503 3.287-1.384 7.143-2.644v0l-1.492-2.436c-0.01-0.018 0.015-0.078 0.074-0.181 0.057-0.093 0.104-0.162 0.141-0.206v0c0.687-0.033 1.196-0.029 1.528 0.011v0l1.273 2.291 6.437-2.053c1.205 0.733 2.151 1.501 2.838 2.305v0c0.039 0.071 0.036 0.177-0.009 0.319-0.036 0.144-0.09 0.236-0.16 0.275v0c-0.695-0.497-1.444-0.619-2.249-0.366v0c-1.174 0.342-3.052 0.936-5.635 1.782v0l2.603 4.749c-0.075 0.018-0.177 0.071-0.307 0.159-0.133 0.082-0.232 0.14-0.297 0.176v0c-0.148 0.082-0.281 0.102-0.398 0.059-0.111-0.047-0.214-0.156-0.31-0.328v0l-2.681-4.345c-3.701 1.219-5.995 2.075-6.883 2.568v0c-0.456 0.253-0.751 0.572-0.886 0.958-0.135 0.385-0.063 0.829 0.217 1.332v0c0.418 0.752 1.172 1.441 2.264 2.066 1.097 0.622 2.384 1.14 3.86 1.552zM39.469 219.021c0.008 0.182-0.052 0.317-0.181 0.404v0c-0.348 0.235-0.796 0.328-1.343 0.28-0.541-0.052-1.096-0.258-1.665-0.618-0.569-0.36-1.058-0.843-1.467-1.45v0c-0.568-0.843-0.807-1.665-0.719-2.467 0.092-0.797 0.461-1.437 1.107-1.922v0c-0.54-0.657-1.243-1.082-2.108-1.275-0.871-0.189-1.765-0.171-2.683 0.055v0l-0.042 0.029v0c-0.208 0.042-0.357 0.082-0.447 0.117v0c-0.606 0.204-2.449 0.996-5.529 2.377v0c-0.169 0.089-0.478-0.201-0.928-0.869v0c-0.431-0.64-0.535-1.036-0.31-1.188v0c0.124-0.083 0.482-0.255 1.074-0.515v0c1.805-0.8 3.689-1.615 5.652-2.448 1.963-0.832 3.106-1.3 3.428-1.402v0c0.283-0.101 0.521-0.094 0.713 0.022 0.192 0.116 0.385 0.317 0.578 0.603v0c0.363 0.539 0.595 1.053 0.695 1.54v0c-0.448 0.122-1.22 0.389-2.315 0.801v0c0.939 0.012 1.791 0.174 2.555 0.483 0.764 0.31 1.345 0.76 1.742 1.35v0c0.182 0.27 0.3 0.525 0.356 0.765 0.056 0.24 0.053 0.418-0.009 0.533v0c-1.624 1.094-2.034 2.236-1.232 3.426v0c0.647 0.961 1.673 1.417 3.078 1.369zM49.019 229.824c0.083 0.248 0.004 0.472-0.236 0.671v0c-0.412 0.342-0.97 0.47-1.673 0.385-0.714-0.086-1.454-0.352-2.22-0.798-0.776-0.447-1.445-1.01-2.008-1.687v0c-0.441-0.532-0.812-1.148-1.112-1.85v0c-0.117 0.071-0.251 0.143-0.403 0.215-0.147 0.078-0.324 0.177-0.532 0.297v0c-0.269 0.153-0.776 0.428-1.52 0.826-0.74 0.403-1.253 0.701-1.541 0.895v0c-0.35 0.088-0.851 0.077-1.505-0.031-0.654-0.109-1.312-0.324-1.975-0.646-0.668-0.317-1.212-0.728-1.631-1.234v0c-0.402-0.485-0.693-1.079-0.873-1.784-0.181-0.695-0.206-1.378-0.077-2.049 0.13-0.671 0.432-1.203 0.906-1.596v0c0.971-0.453 1.757-0.842 2.36-1.166 0.608-0.328 1.452-0.817 2.532-1.468v0c0.402-0.237 0.981-0.313 1.738-0.228 0.757 0.085 1.524 0.324 2.3 0.719 0.772 0.389 1.404 0.881 1.898 1.475v0l0.24 0.29c0.306-0.183 0.59-0.243 0.853-0.181 0.259 0.058 0.523 0.248 0.791 0.572v0c0.407 0.49 0.568 0.88 0.483 1.17v0c-0.741 0.369-1.245 0.663-1.511 0.884v0c-0.667 0.554-0.995 1.23-0.982 2.03 0.012 0.8 0.375 1.629 1.089 2.49v0c0.601 0.725 1.301 1.266 2.1 1.623 0.803 0.363 1.64 0.422 2.509 0.176zM34.055 226.095c0.242 0.292 0.6 0.506 1.073 0.641 0.473 0.135 0.884 0.142 1.232 0.021v0c0.923-0.511 1.72-0.934 2.391-1.272v0c0.247-0.126 0.639-0.333 1.176-0.619 0.541-0.282 1.018-0.545 1.43-0.791v0c0.063-0.677 0.318-1.276 0.766-1.797v0c0.057-0.048 0.101-0.101 0.13-0.161 0.024-0.055 0.025-0.113 0.002-0.173v0c-0.042-0.115-0.13-0.253-0.264-0.414v0c-0.42-0.506-0.909-0.799-1.47-0.88-0.555-0.085-1.098 0.018-1.63 0.31v0c-1.709 0.89-3.237 1.683-4.587 2.38v0c-0.446 0.396-0.67 0.868-0.673 1.417-0.003 0.548 0.138 0.994 0.424 1.338zM77.06 227.429c0.801 0.719 1.288 1.511 1.459 2.374 0.166 0.859-0.022 1.678-0.565 2.456v0l-0.177 0.196c-0.48-1.159-1.292-2.252-2.436-3.279v0c-1.114-1-2.197-1.699-3.25-2.098-1.048-0.404-2.318-0.429-3.81-0.075-1.492 0.354-3.308 1.236-5.447 2.647v0c-2.316 1.516-4.867 3.308-7.653 5.377-2.79 2.064-4.539 3.49-5.244 4.276v0c-0.475 0.529-0.738 0.99-0.789 1.381-0.051 0.391 0.08 0.727 0.392 1.008v0c0.645 0.579 1.645 0.89 3 0.931 1.355 0.042 2.774-0.186 4.259-0.683v0c0.137 0.223 0.101 0.45-0.107 0.682v0c-0.421 0.469-1.178 0.831-2.273 1.087-1.104 0.256-2.275 0.279-3.514 0.068-1.239-0.211-2.303-0.715-3.19-1.512v0c-0.544-0.489-0.847-1.074-0.908-1.757-0.056-0.688 0.129-1.395 0.555-2.123v0c-0.921 0.184-1.847 0.217-2.779 0.099-0.942-0.117-1.677-0.413-2.207-0.888v0c-0.403-0.362-0.668-0.823-0.794-1.381-0.136-0.559-0.144-1.112-0.024-1.661 0.119-0.548 0.335-0.997 0.646-1.344v0c0.408-0.252 0.857-0.564 1.346-0.936 0.488-0.372 0.967-0.748 1.435-1.128v0c0.235-0.181 0.509-0.394 0.822-0.642 0.313-0.247 0.668-0.516 1.064-0.805v0c0.327-0.253 0.865-0.416 1.614-0.491 0.749-0.074 1.542-0.009 2.378 0.196 0.836 0.204 1.556 0.578 2.161 1.121v0c0.514 0.461 0.912 1.169 1.194 2.123v0c1.304-0.996 2.586-1.938 3.848-2.827v0c4.169-2.921 7.847-4.524 11.035-4.812 3.189-0.287 5.841 0.519 7.959 2.42zM50.492 235.46l2.606-1.961c-0.1-0.345-0.255-0.689-0.465-1.032-0.21-0.344-0.429-0.617-0.656-0.821v0c-0.444-0.398-0.996-0.599-1.659-0.601-0.657 0.002-1.275 0.198-1.853 0.589v0c-0.407 0.281-1.166 0.838-2.277 1.67v0c-0.774 0.598-1.385 1.046-1.834 1.344v0c-0.317 0.353-0.504 0.744-0.562 1.174-0.059 0.42 0.035 0.742 0.282 0.963v0c0.57 0.511 1.446 0.661 2.628 0.448 1.188-0.208 2.451-0.799 3.79-1.773zM68.249 250.435c0.197 0.244 0.214 0.474 0.05 0.689v0c-0.279 0.366-1.022 0.754-2.229 1.163-1.206 0.409-2.473 0.636-3.801 0.68-1.318 0.043-2.384-0.246-3.198-0.867v0c-0.609-0.464-0.981-1.054-1.115-1.77-0.126-0.718 0.035-1.387 0.483-2.008v0c-0.846 0.249-1.694 0.378-2.544 0.386-0.845 0.003-1.505-0.176-1.979-0.537v0c-0.474-0.361-0.827-0.932-1.057-1.714-0.226-0.777-0.212-1.392 0.041-1.846v0l7.016-6.405c0.277-0.24 0.485-0.307 0.625-0.201v0c0.183 0.14 0.465 0.457 0.846 0.952 0.386 0.499 0.534 0.808 0.444 0.926v0c-0.037 0.048-0.335 0.294-0.894 0.737v0c-0.639 0.526-1.601 1.352-2.884 2.476-1.284 1.125-2.193 1.944-2.728 2.456v0c-0.132 0.24-0.167 0.52-0.104 0.841 0.053 0.321 0.209 0.581 0.467 0.777v0c0.447 0.341 1.112 0.43 1.993 0.268 0.882-0.162 1.909-0.678 3.083-1.547v0c0.985-0.722 2.512-1.999 4.58-3.829v0c0.16-0.142 0.309-0.16 0.449-0.053v0c0.194 0.148 0.46 0.453 0.798 0.914 0.338 0.462 0.449 0.768 0.334 0.919v0c-1.653 1.252-3.124 2.405-4.412 3.459-1.284 1.048-2.078 1.771-2.383 2.17v0c-0.222 0.291-0.318 0.601-0.287 0.93 0.026 0.335 0.206 0.63 0.539 0.885v0c0.641 0.489 1.661 0.67 3.061 0.544 1.409-0.127 3.011-0.592 4.806-1.395zM67.436 257.812c-0.719-0.447-1.283-1.041-1.691-1.783-0.414-0.744-0.663-1.466-0.747-2.164-0.084-0.698-0.04-1.186 0.132-1.462v0c1.09-1.021 1.933-1.837 2.528-2.447 0.595-0.611 1.244-1.3 1.945-2.068v0c0.239-0.282 0.705-0.467 1.398-0.554 0.687-0.091 1.431-0.075 2.232 0.048 0.795 0.12 1.454 0.343 1.977 0.668v0c0.633 0.394 1.152 0.937 1.559 1.629 0.403 0.698 0.423 1.34 0.058 1.926v0c-0.437 0.702-1.234 0.931-2.392 0.69v0l-0.087-0.09c0.336-0.604 0.502-1.243 0.498-1.916 0.002-0.669-0.187-1.122-0.567-1.358v0c-0.357-0.222-0.858-0.263-1.503-0.122-0.64 0.144-1.105 0.378-1.394 0.7v0c-1.138 1.239-2.418 2.604-3.841 4.096v0c-0.252 0.585-0.308 1.136-0.168 1.654 0.14 0.518 0.636 1.042 1.487 1.572v0c1.058 0.658 2.352 1.041 3.882 1.147 1.533 0.1 3.187-0.506 4.961-1.819v0c0.322 0.2 0.342 0.528 0.059 0.982v0c-0.487 0.782-1.38 1.319-2.679 1.612-1.305 0.289-2.687 0.338-4.148 0.147-1.47-0.189-2.636-0.552-3.499-1.088zM85.95 261.978c0.035 0.185 0.012 0.356-0.067 0.513v0c-0.061 0.121-0.185 0.282-0.372 0.484v0c-0.521 0.426-1.328 0.741-2.42 0.945-1.095 0.195-2.234 0.238-3.418 0.128-1.184-0.109-2.144-0.351-2.88-0.726v0c-0.821-0.418-1.334-0.992-1.54-1.72-0.2-0.726-0.087-1.508 0.34-2.347v0c0.47-0.923 1.954-2.984 4.45-6.182v0l-2.599-1.187c-0.018-0.009-0.031-0.073-0.04-0.191-0.005-0.109-0.005-0.192 0.002-0.25v0c0.551-0.411 0.976-0.692 1.274-0.845v0l2.336 1.19 4.193-5.298c1.409-0.065 2.623 0.044 3.642 0.328v0c0.072 0.037 0.129 0.127 0.17 0.269 0.05 0.14 0.057 0.246 0.021 0.318v0c-0.854-0.025-1.544 0.293-2.071 0.952v0c-0.783 0.939-2.009 2.481-3.679 4.625v0l4.811 2.486c-0.052 0.057-0.107 0.158-0.165 0.303-0.065 0.142-0.114 0.246-0.148 0.312v0c-0.077 0.151-0.176 0.241-0.298 0.271-0.118 0.023-0.265-0.01-0.44-0.099v0l-4.65-2.107c-2.389 3.078-3.814 5.069-4.276 5.974v0c-0.237 0.465-0.304 0.894-0.2 1.289 0.103 0.395 0.411 0.723 0.924 0.984v0c0.766 0.391 1.777 0.541 3.032 0.45 1.258-0.096 2.614-0.386 4.068-0.869zM85.892 267.567c-0.817-0.345-1.371-0.837-1.661-1.474-0.299-0.633-0.246-1.428 0.158-2.382v0c0.098-0.231 0.182-0.405 0.253-0.522v0l2.556-3.674c1.114-1.662 1.809-2.673 2.087-3.033v0c0.183-0.173 0.424-0.273 0.723-0.302 0.308-0.032 0.62 0.019 0.938 0.154v0c0.281 0.119 0.49 0.277 0.627 0.475 0.14 0.191 0.189 0.363 0.147 0.514v0c-1.07 1.489-2.604 3.709-4.6 6.659v0c-0.079 0.136-0.168 0.319-0.266 0.55v0c-0.208 0.493-0.251 0.89-0.128 1.192 0.123 0.302 0.39 0.54 0.801 0.714v0c0.705 0.298 1.573 0.367 2.604 0.206 1.022-0.156 2.042-0.465 3.06-0.924 1.018-0.46 1.88-0.978 2.586-1.554v0c0.217 0.217 0.273 0.45 0.168 0.699v0c-0.074 0.175-0.185 0.341-0.332 0.5-0.148 0.158-0.241 0.258-0.282 0.3v0c-0.674 0.656-1.588 1.2-2.741 1.632-1.153 0.432-2.341 0.676-3.563 0.734-1.223 0.057-2.268-0.098-3.135-0.464zM92.431 253.708c-0.424-0.179-0.694-0.437-0.81-0.772-0.119-0.344-0.089-0.729 0.09-1.153v0c0.232-0.549 0.586-0.944 1.063-1.184 0.474-0.234 0.985-0.235 1.534-0.002v0c0.424 0.179 0.704 0.43 0.84 0.752 0.133 0.328 0.11 0.705-0.069 1.129v0c-0.232 0.549-0.599 0.949-1.102 1.199-0.5 0.244-1.016 0.255-1.546 0.031zM111.552 264.997c0.204 0.164 0.259 0.394 0.166 0.691v0c-0.161 0.51-0.56 0.921-1.197 1.231-0.646 0.315-1.412 0.493-2.299 0.533-0.895 0.045-1.762-0.065-2.601-0.329v0c-0.659-0.208-1.305-0.525-1.938-0.951v0c-0.06 0.123-0.134 0.256-0.221 0.399-0.081 0.145-0.177 0.324-0.287 0.538v0c-0.143 0.274-0.42 0.78-0.829 1.518-0.403 0.739-0.673 1.269-0.809 1.587v0c-0.246 0.263-0.674 0.526-1.282 0.79-0.608 0.263-1.278 0.439-2.01 0.528-0.733 0.096-1.413 0.045-2.039-0.152v0c-0.601-0.189-1.168-0.531-1.701-1.026-0.529-0.486-0.92-1.046-1.175-1.681-0.255-0.634-0.29-1.245-0.105-1.833v0c0.57-0.907 1.02-1.66 1.351-2.258 0.333-0.605 0.777-1.474 1.332-2.606v0c0.209-0.417 0.655-0.795 1.337-1.134 0.682-0.339 1.456-0.553 2.322-0.643 0.86-0.091 1.658-0.021 2.395 0.211v0l0.358 0.113c0.158-0.32 0.364-0.524 0.62-0.614 0.249-0.092 0.574-0.075 0.974 0.051v0c0.607 0.191 0.954 0.432 1.041 0.722v0c-0.423 0.712-0.686 1.232-0.791 1.562v0c-0.26 0.827-0.169 1.573 0.275 2.238 0.444 0.665 1.199 1.166 2.265 1.501v0c0.898 0.283 1.78 0.358 2.645 0.226 0.872-0.13 1.606-0.534 2.203-1.212zM96.957 269.976c0.362 0.114 0.778 0.1 1.249-0.044 0.471-0.143 0.82-0.36 1.046-0.65v0c0.499-0.929 0.939-1.718 1.32-2.364v0c0.14-0.24 0.357-0.626 0.653-1.158 0.302-0.53 0.559-1.01 0.773-1.44v0c-0.314-0.603-0.424-1.245-0.331-1.926v0c0.022-0.071 0.03-0.14 0.022-0.206-0.01-0.06-0.04-0.109-0.092-0.146v0c-0.098-0.073-0.247-0.142-0.447-0.205v0c-0.627-0.197-1.197-0.178-1.712 0.058-0.512 0.229-0.913 0.611-1.202 1.144v0c-0.953 1.674-1.808 3.169-2.563 4.487v0c-0.16 0.575-0.092 1.093 0.202 1.555 0.295 0.462 0.655 0.76 1.082 0.895zM123.792 271.13c0.166 0.032 0.284 0.121 0.352 0.265 0.076 0.139 0.096 0.305 0.058 0.498v0c-0.099 0.505-0.56 1.192-1.385 2.059-0.825 0.867-1.84 1.58-3.046 2.139-1.206 0.558-2.451 0.712-3.734 0.462v0c-0.984-0.192-1.698-0.58-2.144-1.164-0.437-0.589-0.579-1.279-0.424-2.07v0c0.092-0.472 0.296-1.04 0.611-1.703 0.316-0.663 0.736-1.492 1.262-2.486v0c0.49-0.919 0.906-1.745 1.249-2.479v0c0.003-0.124-0.061-0.198-0.194-0.224v0c-0.266-0.052-0.841 0.191-1.726 0.729-0.89 0.53-1.787 1.146-2.689 1.846-0.897 0.708-1.473 1.255-1.728 1.64v0c-0.636 1.456-1.04 2.43-1.211 2.921-0.177 0.483-0.277 0.75-0.301 0.801v0c-0.032 0.056-0.066 0.125-0.103 0.207-0.035 0.076-0.069 0.121-0.099 0.136-0.03 0.015-0.076 0.016-0.135 0.005v0c-0.279-0.054-0.717-0.161-1.315-0.318-0.598-0.151-0.89-0.267-0.875-0.347v0c0.245-0.656 0.813-2.012 1.705-4.067v0c0.197-0.514 0.293-0.761 0.289-0.741v0l2.49-5.973c0.046-0.129 0.105-0.2 0.176-0.214 0.065-0.015 0.204-0.002 0.417 0.04v0c0.884 0.172 1.498 0.437 1.843 0.794v0c-0.034 0.069-0.232 0.517-0.593 1.344-0.353 0.821-0.838 1.855-1.454 3.101v0c1.307-1.077 2.617-2.026 3.93-2.846 1.319-0.819 2.175-1.191 2.567-1.114v0c0.213 0.041 0.615 0.227 1.206 0.556 0.59 0.336 0.889 0.57 0.898 0.703v0l-0.884 1.825c-0.828 1.66-1.466 2.985-1.914 3.975-0.448 0.989-0.726 1.76-0.834 2.311v0c-0.169 0.864 0.153 1.375 0.964 1.534v0c0.658 0.128 1.43 0.01 2.316-0.356 0.886-0.366 1.731-0.894 2.535-1.586 0.812-0.697 1.452-1.432 1.92-2.203zM132.186 269.635c-0.945-0.274-1.727-0.817-2.346-1.629-0.612-0.806-0.926-1.862-0.941-3.169v0c-0.018-1.537 0.4-2.883 1.254-4.038 0.847-1.155 2.025-2.049 3.535-2.683 1.517-0.634 3.233-0.962 5.15-0.984v0c0.921-0.011 1.823 0.043 2.705 0.162 0.875 0.112 1.89 0.276 3.044 0.493v0c0.692 0.127 1.385 0.241 2.076 0.341 0.692 0.094 1.289 0.137 1.79 0.132v0c0.847-0.01 1.62-0.158 2.322-0.443 0.694-0.286 1.258-0.739 1.691-1.361v0c-0.059 1.328-0.487 2.376-1.285 3.144-0.797 0.768-1.927 1.16-3.39 1.177v0c-0.847 0.01-1.698-0.089-2.553-0.295-0.856-0.214-1.981-0.533-3.375-0.957v0c-1.156-0.393-2.128-0.687-2.916-0.88-0.795-0.187-1.537-0.277-2.228-0.269v0c-1.09 0.013-2.018 0.301-2.784 0.865-0.759 0.564-1.333 1.296-1.723 2.194-0.382 0.899-0.568 1.856-0.556 2.872v0c0.013 1.138 0.299 2.096 0.857 2.876 0.558 0.779 1.456 1.46 2.696 2.041v0l-0.121 0.154c-1.497 0.017-2.464 0.103-2.903 0.257zM131.363 278.475c-0.867 0.01-1.674-0.065-2.421-0.226-0.754-0.154-1.372-0.333-1.855-0.538v0c-0.163-0.594-0.248-1.257-0.257-1.988v0l0.169-0.317c1.269 1.333 2.766 1.99 4.494 1.97v0c3.19-0.037 5.267-2.273 6.232-6.707v0c0.843-3.796 1.495-6.649 1.953-8.558v0c0.38-0.519 0.839-0.989 1.376-1.408 0.544-0.419 1.045-0.73 1.503-0.932v0l0.265 0.089c-0.337 0.735-0.644 1.704-0.921 2.906-0.271 1.202-0.623 2.92-1.058 5.154v0c-0.146 0.848-0.319 1.728-0.518 2.637v0c-0.646 2.737-1.754 4.735-3.325 5.993-1.571 1.258-3.45 1.899-5.637 1.924zM164.198 265.896c0.253 0.067 0.397 0.255 0.432 0.565v0c0.06 0.532-0.138 1.069-0.595 1.611-0.463 0.55-1.091 1.023-1.885 1.419-0.8 0.404-1.637 0.655-2.512 0.754v0c-0.687 0.078-1.405 0.05-2.157-0.083v0c-0.005 0.137-0.019 0.288-0.04 0.454-0.015 0.165-0.03 0.368-0.044 0.608v0c-0.02 0.309-0.067 0.883-0.143 1.724-0.069 0.839-0.101 1.433-0.095 1.779v0c-0.118 0.341-0.402 0.754-0.852 1.242-0.449 0.487-0.99 0.92-1.622 1.298-0.631 0.385-1.273 0.614-1.927 0.687v0c-0.626 0.071-1.283-0.012-1.97-0.247-0.68-0.23-1.266-0.583-1.756-1.06-0.49-0.476-0.77-1.021-0.839-1.633v0c0.153-1.06 0.259-1.931 0.319-2.612 0.059-0.688 0.112-1.662 0.161-2.922v0c0.022-0.466 0.276-0.992 0.762-1.579 0.486-0.587 1.107-1.096 1.862-1.53 0.749-0.432 1.507-0.692 2.274-0.778v0l0.373-0.042c0.014-0.356 0.12-0.627 0.318-0.813 0.19-0.185 0.494-0.301 0.911-0.348v0c0.633-0.071 1.047 0.008 1.244 0.238v0c-0.098 0.822-0.128 1.405-0.089 1.748v0c0.097 0.862 0.484 1.506 1.159 1.934 0.675 0.428 1.568 0.579 2.679 0.454v0c0.936-0.106 1.772-0.394 2.509-0.866 0.744-0.473 1.252-1.14 1.523-2.002zM152.876 276.367c0.377-0.043 0.752-0.225 1.124-0.547 0.373-0.322 0.604-0.661 0.693-1.019v0c0.079-1.052 0.161-1.951 0.247-2.696v0c0.03-0.276 0.072-0.717 0.127-1.323 0.061-0.607 0.102-1.15 0.123-1.629v0c-0.532-0.424-0.893-0.966-1.084-1.626v0c-0.008-0.074-0.029-0.14-0.063-0.198-0.033-0.051-0.081-0.083-0.144-0.096v0c-0.119-0.027-0.283-0.029-0.491-0.006v0c-0.653 0.074-1.167 0.323-1.542 0.747-0.375 0.417-0.587 0.929-0.634 1.533v0c-0.193 1.917-0.367 3.63-0.524 5.141v0c0.087 0.59 0.359 1.036 0.816 1.34 0.457 0.303 0.907 0.429 1.352 0.379zM191.33 264.567c0.267 0.077 0.445 0.251 0.532 0.521v0c0.155 0.477 0.1 1.011-0.163 1.602-0.264 0.591-0.665 1.131-1.205 1.62-0.539 0.488-1.109 0.83-1.708 1.024v0c-0.953 0.309-1.795 0.195-2.526-0.344-0.73-0.539-1.242-1.05-1.533-1.532-0.285-0.484-0.747-1.37-1.386-2.659v0c-0.183-0.368-0.365-0.587-0.544-0.656-0.188-0.074-0.491-0.044-0.91 0.092v0l-4.63 1.535c-0.711 2.922-1.501 5.095-2.371 6.516-0.87 1.422-1.982 2.352-3.335 2.791v0c-0.844 0.274-1.538 0.318-2.083 0.132-0.545-0.186-0.903-0.544-1.074-1.072v0c-0.136-0.419-0.12-0.841 0.049-1.266 0.164-0.416 0.474-0.766 0.93-1.05v0c0.236 0.728 0.5 1.18 0.792 1.356 0.288 0.184 0.67 0.199 1.147 0.045v0c0.915-0.297 1.69-0.947 2.326-1.952 0.627-1.008 1.292-2.677 1.996-5.006v0c-0.436 0.106-0.755 0.131-0.958 0.076-0.209-0.053-0.35-0.189-0.421-0.408v0c-0.054-0.168-0.082-0.408-0.084-0.72-0.002-0.313 0.031-0.519 0.098-0.62v0c0.332 0.013 0.967-0.061 1.904-0.222v0c0.512-1.889 1.054-4.016 1.625-6.381 0.565-2.362 0.907-3.798 1.027-4.307v0c0.164-0.68 0.393-1.652 0.688-2.915v0c0.112-0.4 0.232-0.702 0.357-0.907 0.126-0.205 0.324-0.351 0.595-0.438v0c0.238-0.077 0.538-0.121 0.897-0.131v0c-0.093 0.393-0.088 0.915 0.017 1.565 0.1 0.658 0.255 1.345 0.465 2.06v0l0.338 1.14c0.307 0.947 0.69 2.048 1.147 3.302 0.457 1.255 0.845 2.275 1.165 3.061v0c0.632 1.575 1.181 2.828 1.647 3.76 0.46 0.933 0.974 1.663 1.544 2.19 0.566 0.536 1.167 0.7 1.805 0.493v0c0.425-0.138 0.792-0.414 1.099-0.826 0.307-0.413 0.554-0.903 0.741-1.469zM180.503 263.263c0.515-0.167 1.15-0.395 1.904-0.682v0l-1.424-4.291c-0.498-1.533-0.845-2.823-1.043-3.87v0c-0.81 3.232-1.291 5.204-1.444 5.917v0l-0.83 3.698c1.073-0.249 2.019-0.506 2.837-0.772zM204.022 254.666c0.396-0.191 0.732-0.004 1.006 0.564v0c0.144 0.299 0.24 0.629 0.286 0.99v0c0.127 0.871-0.003 1.871-0.391 2.998-0.382 1.125-0.978 2.187-1.789 3.188-0.804 0.998-1.762 1.764-2.872 2.3v0c-1.226 0.592-2.318 0.728-3.278 0.41-0.95-0.316-1.693-1.029-2.229-2.14v0c-0.459-0.952-1.059-2.753-1.797-5.405-0.739-2.652-1.455-5.428-2.148-8.327-0.693-2.9-1.159-5.018-1.398-6.354v0c-0.664-3.666-0.21-5.878 1.364-6.638v0c0.781-0.377 1.531-0.303 2.251 0.222 0.726 0.522 1.352 1.329 1.88 2.421v0c1.054 2.184 1.632 5.124 1.732 8.821 0.1 3.697-0.153 7.355-0.761 10.972v0c0.402 1.175 0.757 2.083 1.067 2.724v0c0.468 0.97 0.939 1.563 1.411 1.778 0.482 0.219 1.043 0.173 1.683-0.136v0c0.866-0.418 1.615-1.088 2.245-2.009 0.628-0.927 1.095-1.962 1.402-3.103 0.3-1.138 0.413-2.23 0.336-3.276zM191.909 242.102c0.395 2.096 0.872 4.4 1.431 6.913 0.565 2.51 1.13 4.795 1.696 6.854v0c0.204-2.896 0.154-5.873-0.15-8.932-0.3-3.052-0.868-5.444-1.704-7.176v0c-0.259-0.537-0.525-0.954-0.796-1.251-0.269-0.292-0.501-0.39-0.696-0.296v0c-0.171 0.082-0.246 0.378-0.226 0.887 0.029 0.512 0.177 1.513 0.445 3.001zM208.98 245.061c0.222-0.007 0.37 0.046 0.444 0.16v0c0.114 0.176 0.741 1.773 1.878 4.79 1.142 3.023 1.824 4.829 2.047 5.42v0l0.67 1.757c2.102 5.606 2.858 10.071 2.265 13.398-0.594 3.335-2.214 5.864-4.86 7.584v0c-1.738 1.13-3.209 1.582-4.414 1.356-1.2-0.23-2.119-0.836-2.758-1.818v0c-0.222-0.341-0.413-0.721-0.573-1.142-0.161-0.421-0.244-0.779-0.25-1.074v0c1.099 0.708 2.243 1.014 3.433 0.919 1.187-0.101 2.359-0.528 3.518-1.282v0c2.078-1.352 3.329-3.074 3.753-5.168 0.426-2.103 0.403-4.076-0.068-5.919-0.469-1.852-1.089-3.687-1.859-5.505v0c-0.057-0.125-0.283-0.665-0.678-1.619v0c-0.198 0.541-0.449 1.031-0.752 1.471-0.309 0.444-0.626 0.771-0.95 0.981v0c-0.42 0.273-0.973 0.435-1.659 0.485-0.683 0.056-1.334-0.001-1.954-0.171-0.614-0.174-1.041-0.446-1.282-0.815v0c-0.641-1.756-1.395-3.674-2.262-5.752v0c-0.166-0.393-0.149-0.981 0.051-1.767 0.201-0.785 0.514-1.546 0.939-2.283 0.429-0.732 0.871-1.245 1.325-1.54v0c0.29-0.188 0.655-0.329 1.096-0.422 0.441-0.093 0.892-0.119 1.353-0.08v0l-0.651-1.431 0.077-0.086c0.159 0.058 0.404 0.037 0.733-0.065 0.339-0.099 0.535-0.158 0.588-0.177v0c0.42-0.136 0.687-0.204 0.8-0.205zM210.251 253.724l-1.92-4.592c-0.183-0.455-0.296-0.716-0.341-0.785v0c-0.707-0.13-1.333-0.018-1.878 0.337v0c-0.534 0.347-0.903 0.866-1.108 1.557-0.201 0.697-0.182 1.403 0.058 2.12v0l1.039 2.548 0.917 2.155c0.273 0.42 0.652 0.691 1.134 0.813 0.483 0.122 0.91 0.063 1.279-0.177v0c0.29-0.188 0.539-0.488 0.749-0.899 0.215-0.415 0.338-0.89 0.368-1.427 0.031-0.537-0.068-1.087-0.297-1.65zM225.917 234.74c0.25-0.076 0.472 0.009 0.664 0.255v0c0.33 0.421 0.442 0.983 0.337 1.684-0.106 0.711-0.393 1.443-0.862 2.196-0.469 0.763-1.051 1.416-1.744 1.959v0c-0.544 0.426-1.171 0.779-1.881 1.058v0c0.067 0.119 0.135 0.255 0.203 0.409 0.073 0.149 0.167 0.329 0.282 0.541v0c0.145 0.273 0.406 0.788 0.781 1.543 0.381 0.751 0.665 1.273 0.851 1.566v0c0.078 0.352 0.053 0.853-0.075 1.503-0.128 0.65-0.362 1.302-0.702 1.955-0.336 0.659-0.763 1.19-1.28 1.595v0c-0.496 0.388-1.099 0.662-1.809 0.822-0.7 0.161-1.383 0.166-2.05 0.017-0.667-0.149-1.19-0.466-1.57-0.951v0c-0.425-0.983-0.791-1.781-1.098-2.392-0.311-0.617-0.775-1.475-1.394-2.574v0c-0.225-0.409-0.284-0.99-0.177-1.744 0.107-0.754 0.368-1.514 0.784-2.278 0.411-0.76 0.921-1.378 1.53-1.854v0l0.296-0.232c-0.174-0.311-0.226-0.597-0.156-0.858 0.065-0.257 0.263-0.516 0.594-0.775v0c0.501-0.392 0.896-0.542 1.184-0.449v0c0.347 0.752 0.627 1.264 0.84 1.536v0c0.534 0.683 1.201 1.03 2.001 1.04 0.8 0.011 1.64-0.328 2.519-1.016v0c0.742-0.58 1.303-1.264 1.684-2.053 0.386-0.792 0.469-1.627 0.248-2.503zM221.759 249.591c0.299-0.234 0.523-0.585 0.671-1.055 0.149-0.469 0.168-0.879 0.056-1.23v0c-0.484-0.937-0.884-1.746-1.202-2.427v0c-0.119-0.251-0.314-0.649-0.585-1.193-0.266-0.549-0.516-1.033-0.749-1.452v0c-0.675-0.082-1.267-0.355-1.775-0.818v0c-0.046-0.059-0.098-0.104-0.157-0.135-0.055-0.026-0.112-0.028-0.173-0.007v0c-0.116 0.039-0.256 0.123-0.421 0.253v0c-0.517 0.405-0.825 0.886-0.922 1.444-0.101 0.552-0.013 1.098 0.263 1.638v0c0.84 1.733 1.589 3.284 2.247 4.653v0c0.383 0.457 0.849 0.695 1.397 0.714 0.548 0.019 0.998-0.11 1.35-0.385zM233.988 226.809c0.178-0.04 0.321-0.004 0.43 0.108v0c0.291 0.302 0.461 0.727 0.508 1.275 0.043 0.542-0.064 1.125-0.32 1.747-0.256 0.623-0.647 1.188-1.174 1.695v0c-0.732 0.705-1.5 1.083-2.307 1.136-0.801 0.047-1.496-0.205-2.084-0.758v0c-0.553 0.646-0.85 1.412-0.89 2.297-0.036 0.89 0.137 1.768 0.518 2.633v0l0.036 0.036v0c0.078 0.198 0.142 0.338 0.193 0.421v0c0.306 0.561 1.405 2.239 3.298 5.034v0c0.117 0.151-0.115 0.506-0.696 1.064v0c-0.556 0.536-0.928 0.706-1.116 0.511v0c-0.103-0.107-0.334-0.43-0.693-0.968v0c-1.1-1.64-2.23-3.354-3.389-5.144-1.159-1.789-1.818-2.834-1.975-3.133v0c-0.148-0.261-0.182-0.497-0.102-0.706 0.081-0.209 0.245-0.434 0.494-0.674v0c0.468-0.451 0.934-0.768 1.397-0.951v0c0.198 0.42 0.594 1.134 1.189 2.142v0c-0.15-0.927-0.139-1.794 0.034-2.601 0.173-0.806 0.516-1.456 1.028-1.949v0c0.234-0.226 0.465-0.387 0.692-0.483 0.227-0.096 0.402-0.124 0.526-0.084v0c1.358 1.41 2.554 1.616 3.588 0.62v0c0.834-0.804 1.106-1.893 0.815-3.268zM242.086 233.236c-0.591 0.662-1.234 1.028-1.931 1.096-0.696 0.078-1.431-0.228-2.204-0.917v0c-0.187-0.167-0.324-0.303-0.412-0.408v0l-2.653-3.604c-1.214-1.59-1.946-2.575-2.198-2.954v0c-0.104-0.229-0.122-0.49-0.052-0.782 0.069-0.301 0.219-0.581 0.448-0.838v0c0.203-0.227 0.42-0.374 0.651-0.441 0.226-0.071 0.404-0.062 0.534 0.027v0c1.064 1.493 2.671 3.661 4.82 6.503v0c0.103 0.119 0.248 0.262 0.435 0.428v0c0.399 0.356 0.762 0.525 1.086 0.507 0.325-0.019 0.636-0.195 0.934-0.529v0c0.509-0.571 0.855-1.371 1.036-2.398 0.182-1.018 0.219-2.083 0.112-3.194-0.107-1.112-0.319-2.095-0.637-2.95v0c0.275-0.136 0.514-0.113 0.717 0.067v0c0.142 0.126 0.263 0.285 0.365 0.476 0.102 0.191 0.167 0.312 0.194 0.363v0c0.404 0.85 0.624 1.89 0.661 3.121 0.037 1.231-0.115 2.434-0.456 3.61-0.34 1.176-0.824 2.115-1.45 2.817zM231.077 222.576c-0.307 0.344-0.637 0.516-0.992 0.517-0.364 0.002-0.719-0.151-1.063-0.457v0c-0.445-0.397-0.704-0.859-0.777-1.387-0.068-0.524 0.096-1.008 0.492-1.453v0c0.307-0.344 0.634-0.528 0.983-0.553 0.354-0.02 0.703 0.123 1.047 0.429v0c0.445 0.397 0.705 0.874 0.78 1.431 0.07 0.552-0.087 1.044-0.47 1.473zM249.007 216.17c0.188-0.001 0.352 0.052 0.492 0.159v0c0.108 0.082 0.244 0.233 0.409 0.452v0c0.325 0.589 0.49 1.44 0.494 2.551-0.006 1.112-0.168 2.241-0.489 3.385-0.32 1.145-0.731 2.045-1.232 2.702v0c-0.559 0.732-1.216 1.134-1.97 1.206-0.75 0.067-1.499-0.186-2.247-0.757v0c-0.824-0.629-2.584-2.459-5.28-5.489v0l-1.636 2.343c-0.012 0.016-0.077 0.018-0.195 0.004-0.108-0.014-0.19-0.03-0.246-0.047v0c-0.305-0.616-0.505-1.085-0.601-1.405v0l1.591-2.083-4.457-5.079c0.19-1.398 0.515-2.572 0.977-3.523v0c0.049-0.065 0.148-0.104 0.296-0.119 0.147-0.024 0.252-0.012 0.317 0.037v0c-0.178 0.836 0.01 1.572 0.564 2.208v0c0.783 0.939 2.079 2.423 3.887 4.451v0l3.311-4.285c0.047 0.061 0.136 0.134 0.268 0.218 0.128 0.089 0.222 0.156 0.281 0.201v0c0.135 0.103 0.205 0.217 0.212 0.341 0.002 0.121-0.057 0.259-0.176 0.415v0l-2.91 4.196c2.598 2.904 4.3 4.664 5.108 5.281v0c0.415 0.317 0.825 0.46 1.232 0.429 0.407-0.03 0.785-0.274 1.134-0.732v0c0.522-0.684 0.852-1.651 0.988-2.901 0.131-1.255 0.091-2.641-0.122-4.159zM233.759 190.08c0.732-1.219 1.622-2.017 2.669-2.391 1.044-0.384 2.068-0.477 3.07-0.278 1.002 0.199 1.875 0.522 2.618 0.968v0l0.262 0.394c-1.382-0.316-2.539-0.284-3.471 0.096-0.932 0.381-1.739 1.14-2.423 2.279v0c-1.416 2.358-1.497 4.967-0.244 7.828 1.256 2.856 3.938 6.145 8.047 9.868v0c0.434 0.395 1.386 1.271 2.855 2.627v0l1.075 1.012c-0.512-1.319-0.909-2.683-1.193-4.093-0.28-1.416-0.301-2.322-0.063-2.716v0c0.139-0.232 0.474-0.513 1.003-0.843 0.536-0.326 0.861-0.455 0.978-0.385v0c0.915 0.976 2.022 2.079 3.322 3.31 1.303 1.225 2.268 2.025 2.895 2.402v0c0.877 0.526 1.563 0.377 2.058-0.448v0c0.404-0.674 0.571-1.517 0.501-2.531-0.061-1.016-0.288-2.033-0.681-3.051-0.398-1.021-0.864-1.85-1.398-2.487v0c0.116-0.088 0.231-0.142 0.345-0.161 0.117-0.024 0.266 0.018 0.446 0.126v0c0.18 0.108 0.353 0.248 0.519 0.418v0c0.54 0.522 0.989 1.352 1.348 2.492 0.362 1.134 0.536 2.325 0.522 3.573-0.008 1.251-0.285 2.33-0.829 3.235v0c-0.495 0.825-1.113 1.315-1.854 1.47-0.75 0.158-1.552-0.02-2.406-0.532v0c-0.592-0.356-1.238-0.866-1.937-1.53-0.699-0.665-1.668-1.63-2.908-2.895v0c-0.074-0.021-0.145-0.016-0.211 0.015-0.057 0.029-0.101 0.07-0.132 0.122v0c-0.108 0.18-0.109 0.642-0.002 1.385 0.109 0.753 0.322 1.596 0.639 2.529 0.32 0.927 0.72 1.736 1.198 2.426v0c0.225 0.23 0.762 0.698 1.609 1.404v0l1.302 1.149c0.336 0.296 0.521 0.507 0.557 0.631 0.039 0.118 0 0.276-0.119 0.474v0c-0.248 0.412-0.522 0.777-0.822 1.094-0.297 0.311-0.516 0.413-0.657 0.305v0l-0.828-0.734c-1.892-1.784-3.216-3.025-3.973-3.725-0.757-0.7-1.332-1.222-1.725-1.569v0c-0.61-0.524-1.517-1.329-2.721-2.415v0c-3.303-2.947-5.792-5.729-7.467-8.347-1.675-2.618-2.623-4.968-2.842-7.051-0.219-2.083 0.137-3.9 1.068-5.45zM263.626 182.531c0.092-0.211 0.222-0.354 0.388-0.429 0.172-0.072 0.37-0.06 0.593 0.038v0c0.533 0.234 1.151 0.841 1.853 1.822 0.704 0.974 1.215 2.079 1.532 3.312 0.323 1.236 0.258 2.372-0.197 3.409v0c-0.408 0.93-1.05 1.61-1.926 2.039-0.867 0.426-1.713 0.458-2.539 0.097v0c-0.459-0.201-1.003-0.562-1.633-1.083-0.639-0.517-1.362-1.145-2.169-1.883v0c-0.789-0.679-1.247-1.068-1.374-1.168v0c-0.056-0.024-0.122-0.009-0.198 0.046-0.073 0.049-0.125 0.108-0.155 0.176v0c-0.147 0.335 0.174 1.171 0.964 2.508 0.792 1.331 1.502 2.386 2.129 3.164v0c0.479 0.425 1.606 1.296 3.38 2.614v0c0.265 0.205 0.441 0.352 0.528 0.442 0.086 0.09 0.111 0.178 0.072 0.265v0c-0.046 0.105-0.188 0.302-0.425 0.59-0.241 0.279-0.488 0.514-0.742 0.706-0.248 0.194-0.443 0.26-0.586 0.198v0c-0.23-0.101-0.599-0.355-1.108-0.763v0c-1.303-1.06-2.358-1.9-3.166-2.52-0.805-0.627-1.8-1.359-2.986-2.197v0c-0.189 0.043-0.319 0.145-0.39 0.306v0c-0.114 0.261-0.002 0.764 0.336 1.512 0.332 0.745 0.825 1.601 1.481 2.568 0.655 0.968 1.376 1.898 2.16 2.79v0c1.009 0.82 2.013 1.574 3.012 2.263v0c-0.101 0.23-0.346 0.621-0.737 1.175-0.391 0.553-0.657 0.799-0.8 0.736v0c-0.124-0.054-0.474-0.311-1.048-0.77v0l-0.618-0.438c-0.324-0.223-1.285-0.915-2.885-2.074-1.603-1.169-3.166-2.361-4.689-3.576v0c-0.141-0.099-0.234-0.191-0.277-0.278-0.053-0.082-0.056-0.176-0.01-0.281v0c0.063-0.143 0.283-0.486 0.662-1.03 0.376-0.553 0.602-0.842 0.68-0.867v0c1.292 0.966 2.616 1.987 3.971 3.062v0c-0.788-1.019-1.392-1.96-1.812-2.825-0.42-0.864-0.672-1.596-0.757-2.195-0.088-0.593-0.074-1.02 0.041-1.281v0c0.101-0.23 0.388-0.581 0.861-1.053 0.47-0.482 0.767-0.695 0.891-0.641v0c0.781 0.513 1.689 1.173 2.725 1.982v0c-1.956-3.062-2.753-5.005-2.391-5.83v0c0.139-0.316 0.426-0.693 0.862-1.13 0.43-0.44 0.769-0.606 1.017-0.498v0c0.53 0.462 0.783 0.676 0.76 0.645v0c1.304 1.141 2.384 2.051 3.24 2.73 0.856 0.679 1.582 1.149 2.178 1.409v0c1.092 0.479 1.862 0.206 2.311-0.817v0c0.433-0.986 0.375-2.121-0.172-3.403-0.544-1.289-1.49-2.48-2.837-3.574zM271.105 183.064c-0.214 0.678-0.531 1.264-0.949 1.757-0.419 0.493-0.867 0.845-1.346 1.055-0.479 0.211-0.922 0.252-1.329 0.123v0c-0.362-0.114-0.608-0.334-0.739-0.66-0.131-0.326-0.161-0.658-0.09-0.998v0c0.799 0.011 1.478-0.136 2.037-0.442 0.565-0.304 0.949-0.776 1.151-1.416v0c0.208-0.659 0.173-1.267-0.105-1.824-0.281-0.55-0.695-0.913-1.245-1.086v0c-0.459-0.145-0.903-0.133-1.332 0.037-0.422 0.165-0.967 0.476-1.638 0.931v0c-0.687 0.465-1.273 0.791-1.758 0.979-0.488 0.194-0.996 0.207-1.526 0.039v0c-0.588-0.186-1.074-0.556-1.46-1.111-0.392-0.557-0.64-1.19-0.743-1.897-0.11-0.71-0.068-1.368 0.124-1.975v0c0.214-0.678 0.578-1.277 1.091-1.797 0.521-0.524 0.991-0.72 1.411-0.588v0c0.207 0.065 0.387 0.204 0.54 0.416 0.155 0.205 0.251 0.477 0.285 0.815v0c-0.521 0.119-0.936 0.287-1.245 0.501-0.309 0.215-0.527 0.522-0.654 0.923v0c-0.139 0.439-0.138 0.862 0.003 1.269 0.141 0.407 0.431 0.68 0.871 0.819v0c0.387 0.123 0.786 0.099 1.194-0.07 0.404-0.178 0.926-0.478 1.564-0.901v0c0.763-0.504 1.405-0.859 1.924-1.065 0.522-0.212 1.066-0.227 1.635-0.047v0c0.639 0.202 1.189 0.632 1.649 1.288 0.458 0.663 0.754 1.435 0.887 2.316 0.136 0.874 0.067 1.744-0.207 2.609zM0 140.46c0-6.617 5.364-11.982 11.982-11.981 6.617 0 11.982 5.364 11.982 11.981 0 6.617-5.364 11.982-11.982 11.982-6.617 0-11.982-5.364-11.982-11.982zM256.036 140.46c0-6.617 5.364-11.982 11.982-11.981 6.617 0 11.982 5.364 11.982 11.981 0 6.617-5.364 11.982-11.982 11.982-6.617 0-11.982-5.364-11.982-11.982z" fill="#ffffff" data-fill-palette-color="primary"></path></svg></g></svg></g></svg></g></svg></g></svg><rect width="280" height="280" fill="none" stroke="none" visibility="hidden"></rect></g></svg></g></svg>